<?xml version="1.0" encoding="UTF-8" standalone="no"?>
<!DOCTYPE svg PUBLIC "-//W3C//DTD SVG 1.1//EN"
 "http://www.w3.org/Graphics/SVG/1.1/DTD/svg11.dtd">
<!-- Generated by graphviz version 6.0.2 (20221011.1828)
 -->
<!-- Title: List Pages: 1 -->
<svg width="905pt" height="907pt"
 viewBox="0.00 0.00 905.00 907.00" xmlns="http://www.w3.org/2000/svg" xmlns:xlink="http://www.w3.org/1999/xlink">
<g id="graph0" class="graph" transform="scale(1 1) rotate(0) translate(4 903)">
<title>List</title>
<polygon fill="#696969" stroke="none" points="-4,4 -4,-903 901,-903 901,4 -4,4"/>
<text text-anchor="middle" x="448.5" y="-7.8" font-family="Times New Roman,serif" font-size="14.00">tree_dump from function print_database, Tree/akin.cpp:313</text>
<!-- node0 -->
<g id="node1" class="node">
<title>node0</title>
<path fill="#ff0000" stroke="black" d="M209,-783.5C209,-783.5 297,-783.5 297,-783.5 303,-783.5 309,-789.5 309,-795.5 309,-795.5 309,-886.5 309,-886.5 309,-892.5 303,-898.5 297,-898.5 297,-898.5 209,-898.5 209,-898.5 203,-898.5 197,-892.5 197,-886.5 197,-886.5 197,-795.5 197,-795.5 197,-789.5 203,-783.5 209,-783.5"/>
<text text-anchor="middle" x="253" y="-883.3" font-family="Times New Roman,serif" font-size="14.00">idx: 0002D198</text>
<polyline fill="none" stroke="black" points="197,-875.5 309,-875.5"/>
<text text-anchor="middle" x="253" y="-860.3" font-family="Times New Roman,serif" font-size="14.00">value: yellow</text>
<polyline fill="none" stroke="black" points="197,-852.5 309,-852.5"/>
<text text-anchor="middle" x="253" y="-837.3" font-family="Times New Roman,serif" font-size="14.00">left: 0002CFD0</text>
<polyline fill="none" stroke="black" points="197,-829.5 309,-829.5"/>
<text text-anchor="middle" x="253" y="-814.3" font-family="Times New Roman,serif" font-size="14.00">right: 0002CFE8</text>
<polyline fill="none" stroke="black" points="197,-806.5 309,-806.5"/>
<text text-anchor="middle" x="253" y="-791.3" font-family="Times New Roman,serif" font-size="14.00">parent: 00000000</text>
</g>
<!-- node1 -->
<g id="node2" class="node">
<title>node1</title>
<path fill="#00bfff" stroke="black" d="M129,-631.5C129,-631.5 237,-631.5 237,-631.5 243,-631.5 249,-637.5 249,-643.5 249,-643.5 249,-734.5 249,-734.5 249,-740.5 243,-746.5 237,-746.5 237,-746.5 129,-746.5 129,-746.5 123,-746.5 117,-740.5 117,-734.5 117,-734.5 117,-643.5 117,-643.5 117,-637.5 123,-631.5 129,-631.5"/>
<text text-anchor="middle" x="183" y="-731.3" font-family="Times New Roman,serif" font-size="14.00">idx: 0002CFD0</text>
<polyline fill="none" stroke="black" points="117,-723.5 249,-723.5"/>
<text text-anchor="middle" x="183" y="-708.3" font-family="Times New Roman,serif" font-size="14.00">value: worn on a belt</text>
<polyline fill="none" stroke="black" points="117,-700.5 249,-700.5"/>
<text text-anchor="middle" x="183" y="-685.3" font-family="Times New Roman,serif" font-size="14.00">left: 0002D138</text>
<polyline fill="none" stroke="black" points="117,-677.5 249,-677.5"/>
<text text-anchor="middle" x="183" y="-662.3" font-family="Times New Roman,serif" font-size="14.00">right: 0002D090</text>
<polyline fill="none" stroke="black" points="117,-654.5 249,-654.5"/>
<text text-anchor="middle" x="183" y="-639.3" font-family="Times New Roman,serif" font-size="14.00">parent: 00000000</text>
</g>
<!-- node0&#45;&gt;node1 -->
<g id="edge1" class="edge">
<title>node0&#45;&gt;node1</title>
<path fill="none" stroke="#00bfff" d="M226.54,-783.29C222.35,-774.33 218,-765 213.73,-755.85"/>
<polygon fill="#00bfff" stroke="#00bfff" points="216.9,-754.37 209.5,-746.79 210.56,-757.33 216.9,-754.37"/>
</g>
<!-- node4 -->
<g id="node5" class="node">
<title>node4</title>
<path fill="#ccff99" stroke="black" d="M279,-631.5C279,-631.5 367,-631.5 367,-631.5 373,-631.5 379,-637.5 379,-643.5 379,-643.5 379,-734.5 379,-734.5 379,-740.5 373,-746.5 367,-746.5 367,-746.5 279,-746.5 279,-746.5 273,-746.5 267,-740.5 267,-734.5 267,-734.5 267,-643.5 267,-643.5 267,-637.5 273,-631.5 279,-631.5"/>
<text text-anchor="middle" x="323" y="-731.3" font-family="Times New Roman,serif" font-size="14.00">idx: 0002CFE8</text>
<polyline fill="none" stroke="black" points="267,-723.5 379,-723.5"/>
<text text-anchor="middle" x="323" y="-708.3" font-family="Times New Roman,serif" font-size="14.00">value: alive</text>
<polyline fill="none" stroke="black" points="267,-700.5 379,-700.5"/>
<text text-anchor="middle" x="323" y="-685.3" font-family="Times New Roman,serif" font-size="14.00">left: 0002D0D8</text>
<polyline fill="none" stroke="black" points="267,-677.5 379,-677.5"/>
<text text-anchor="middle" x="323" y="-662.3" font-family="Times New Roman,serif" font-size="14.00">right: 0002D018</text>
<polyline fill="none" stroke="black" points="267,-654.5 379,-654.5"/>
<text text-anchor="middle" x="323" y="-639.3" font-family="Times New Roman,serif" font-size="14.00">parent: 00000000</text>
</g>
<!-- node0&#45;&gt;node4 -->
<g id="edge4" class="edge">
<title>node0&#45;&gt;node4</title>
<path fill="none" stroke="#ccff99" d="M279.46,-783.29C283.65,-774.33 288,-765 292.27,-755.85"/>
<polygon fill="#ccff99" stroke="#ccff99" points="295.44,-757.33 296.5,-746.79 289.1,-754.37 295.44,-757.33"/>
</g>
<!-- node2 -->
<g id="node3" class="node">
<title>node2</title>
<path fill="#00bfff" stroke="black" d="M12,-479.5C12,-479.5 100,-479.5 100,-479.5 106,-479.5 112,-485.5 112,-491.5 112,-491.5 112,-582.5 112,-582.5 112,-588.5 106,-594.5 100,-594.5 100,-594.5 12,-594.5 12,-594.5 6,-594.5 0,-588.5 0,-582.5 0,-582.5 0,-491.5 0,-491.5 0,-485.5 6,-479.5 12,-479.5"/>
<text text-anchor="middle" x="56" y="-579.3" font-family="Times New Roman,serif" font-size="14.00">idx: 0002D138</text>
<polyline fill="none" stroke="black" points="0,-571.5 112,-571.5"/>
<text text-anchor="middle" x="56" y="-556.3" font-family="Times New Roman,serif" font-size="14.00">value: judo belt</text>
<polyline fill="none" stroke="black" points="0,-548.5 112,-548.5"/>
<text text-anchor="middle" x="56" y="-533.3" font-family="Times New Roman,serif" font-size="14.00">left: 00000000</text>
<polyline fill="none" stroke="black" points="0,-525.5 112,-525.5"/>
<text text-anchor="middle" x="56" y="-510.3" font-family="Times New Roman,serif" font-size="14.00">right: 00000000</text>
<polyline fill="none" stroke="black" points="0,-502.5 112,-502.5"/>
<text text-anchor="middle" x="56" y="-487.3" font-family="Times New Roman,serif" font-size="14.00">parent: 00000000</text>
</g>
<!-- node1&#45;&gt;node2 -->
<g id="edge2" class="edge">
<title>node1&#45;&gt;node2</title>
<path fill="none" stroke="#00bfff" d="M134.99,-631.29C127.01,-621.86 118.68,-612.03 110.55,-602.43"/>
<polygon fill="#00bfff" stroke="#00bfff" points="113.21,-600.16 104.08,-594.79 107.87,-604.68 113.21,-600.16"/>
</g>
<!-- node3 -->
<g id="node4" class="node">
<title>node3</title>
<path fill="#ccff99" stroke="black" d="M142,-479.5C142,-479.5 230,-479.5 230,-479.5 236,-479.5 242,-485.5 242,-491.5 242,-491.5 242,-582.5 242,-582.5 242,-588.5 236,-594.5 230,-594.5 230,-594.5 142,-594.5 142,-594.5 136,-594.5 130,-588.5 130,-582.5 130,-582.5 130,-491.5 130,-491.5 130,-485.5 136,-479.5 142,-479.5"/>
<text text-anchor="middle" x="186" y="-579.3" font-family="Times New Roman,serif" font-size="14.00">idx: 0002D090</text>
<polyline fill="none" stroke="black" points="130,-571.5 242,-571.5"/>
<text text-anchor="middle" x="186" y="-556.3" font-family="Times New Roman,serif" font-size="14.00">value: sun</text>
<polyline fill="none" stroke="black" points="130,-548.5 242,-548.5"/>
<text text-anchor="middle" x="186" y="-533.3" font-family="Times New Roman,serif" font-size="14.00">left: 00000000</text>
<polyline fill="none" stroke="black" points="130,-525.5 242,-525.5"/>
<text text-anchor="middle" x="186" y="-510.3" font-family="Times New Roman,serif" font-size="14.00">right: 00000000</text>
<polyline fill="none" stroke="black" points="130,-502.5 242,-502.5"/>
<text text-anchor="middle" x="186" y="-487.3" font-family="Times New Roman,serif" font-size="14.00">parent: 00000000</text>
</g>
<!-- node1&#45;&gt;node3 -->
<g id="edge3" class="edge">
<title>node1&#45;&gt;node3</title>
<path fill="none" stroke="#ccff99" d="M184.13,-631.29C184.31,-622.7 184.48,-613.78 184.66,-605"/>
<polygon fill="#ccff99" stroke="#ccff99" points="188.16,-604.86 184.86,-594.79 181.16,-604.72 188.16,-604.86"/>
</g>
<!-- node5 -->
<g id="node6" class="node">
<title>node5</title>
<path fill="#00bfff" stroke="black" d="M277,-479.5C277,-479.5 365,-479.5 365,-479.5 371,-479.5 377,-485.5 377,-491.5 377,-491.5 377,-582.5 377,-582.5 377,-588.5 371,-594.5 365,-594.5 365,-594.5 277,-594.5 277,-594.5 271,-594.5 265,-588.5 265,-582.5 265,-582.5 265,-491.5 265,-491.5 265,-485.5 271,-479.5 277,-479.5"/>
<text text-anchor="middle" x="321" y="-579.3" font-family="Times New Roman,serif" font-size="14.00">idx: 0002D0D8</text>
<polyline fill="none" stroke="black" points="265,-571.5 377,-571.5"/>
<text text-anchor="middle" x="321" y="-556.3" font-family="Times New Roman,serif" font-size="14.00">value: grey</text>
<polyline fill="none" stroke="black" points="265,-548.5 377,-548.5"/>
<text text-anchor="middle" x="321" y="-533.3" font-family="Times New Roman,serif" font-size="14.00">left: 0002D0C0</text>
<polyline fill="none" stroke="black" points="265,-525.5 377,-525.5"/>
<text text-anchor="middle" x="321" y="-510.3" font-family="Times New Roman,serif" font-size="14.00">right: 0002D030</text>
<polyline fill="none" stroke="black" points="265,-502.5 377,-502.5"/>
<text text-anchor="middle" x="321" y="-487.3" font-family="Times New Roman,serif" font-size="14.00">parent: 00000000</text>
</g>
<!-- node4&#45;&gt;node5 -->
<g id="edge5" class="edge">
<title>node4&#45;&gt;node5</title>
<path fill="none" stroke="#00bfff" d="M322.24,-631.29C322.13,-622.7 322.01,-613.78 321.89,-605"/>
<polygon fill="#00bfff" stroke="#00bfff" points="325.39,-604.74 321.76,-594.79 318.39,-604.83 325.39,-604.74"/>
</g>
<!-- node10 -->
<g id="node11" class="node">
<title>node10</title>
<path fill="#ccff99" stroke="black" d="M472,-479.5C472,-479.5 560,-479.5 560,-479.5 566,-479.5 572,-485.5 572,-491.5 572,-491.5 572,-582.5 572,-582.5 572,-588.5 566,-594.5 560,-594.5 560,-594.5 472,-594.5 472,-594.5 466,-594.5 460,-588.5 460,-582.5 460,-582.5 460,-491.5 460,-491.5 460,-485.5 466,-479.5 472,-479.5"/>
<text text-anchor="middle" x="516" y="-579.3" font-family="Times New Roman,serif" font-size="14.00">idx: 0002D018</text>
<polyline fill="none" stroke="black" points="460,-571.5 572,-571.5"/>
<text text-anchor="middle" x="516" y="-556.3" font-family="Times New Roman,serif" font-size="14.00">value: big</text>
<polyline fill="none" stroke="black" points="460,-548.5 572,-548.5"/>
<text text-anchor="middle" x="516" y="-533.3" font-family="Times New Roman,serif" font-size="14.00">left: 0002D0F0</text>
<polyline fill="none" stroke="black" points="460,-525.5 572,-525.5"/>
<text text-anchor="middle" x="516" y="-510.3" font-family="Times New Roman,serif" font-size="14.00">right: 0002D5D0</text>
<polyline fill="none" stroke="black" points="460,-502.5 572,-502.5"/>
<text text-anchor="middle" x="516" y="-487.3" font-family="Times New Roman,serif" font-size="14.00">parent: 00000000</text>
</g>
<!-- node4&#45;&gt;node10 -->
<g id="edge10" class="edge">
<title>node4&#45;&gt;node10</title>
<path fill="none" stroke="#ccff99" d="M379.08,-644.41C401.78,-626.77 428.12,-606.3 451.6,-588.05"/>
<polygon fill="#ccff99" stroke="#ccff99" points="454.03,-590.6 459.78,-581.7 449.73,-585.07 454.03,-590.6"/>
</g>
<!-- node6 -->
<g id="node7" class="node">
<title>node6</title>
<path fill="#00bfff" stroke="black" d="M147,-327.5C147,-327.5 235,-327.5 235,-327.5 241,-327.5 247,-333.5 247,-339.5 247,-339.5 247,-430.5 247,-430.5 247,-436.5 241,-442.5 235,-442.5 235,-442.5 147,-442.5 147,-442.5 141,-442.5 135,-436.5 135,-430.5 135,-430.5 135,-339.5 135,-339.5 135,-333.5 141,-327.5 147,-327.5"/>
<text text-anchor="middle" x="191" y="-427.3" font-family="Times New Roman,serif" font-size="14.00">idx: 0002D0C0</text>
<polyline fill="none" stroke="black" points="135,-419.5 247,-419.5"/>
<text text-anchor="middle" x="191" y="-404.3" font-family="Times New Roman,serif" font-size="14.00">value: mouse</text>
<polyline fill="none" stroke="black" points="135,-396.5 247,-396.5"/>
<text text-anchor="middle" x="191" y="-381.3" font-family="Times New Roman,serif" font-size="14.00">left: 00000000</text>
<polyline fill="none" stroke="black" points="135,-373.5 247,-373.5"/>
<text text-anchor="middle" x="191" y="-358.3" font-family="Times New Roman,serif" font-size="14.00">right: 00000000</text>
<polyline fill="none" stroke="black" points="135,-350.5 247,-350.5"/>
<text text-anchor="middle" x="191" y="-335.3" font-family="Times New Roman,serif" font-size="14.00">parent: 00000000</text>
</g>
<!-- node5&#45;&gt;node6 -->
<g id="edge6" class="edge">
<title>node5&#45;&gt;node6</title>
<path fill="none" stroke="#00bfff" d="M271.85,-479.29C263.68,-469.86 255.16,-460.03 246.84,-450.43"/>
<polygon fill="#00bfff" stroke="#00bfff" points="249.41,-448.05 240.22,-442.79 244.12,-452.64 249.41,-448.05"/>
</g>
<!-- node7 -->
<g id="node8" class="node">
<title>node7</title>
<path fill="#ccff99" stroke="black" d="M277,-327.5C277,-327.5 365,-327.5 365,-327.5 371,-327.5 377,-333.5 377,-339.5 377,-339.5 377,-430.5 377,-430.5 377,-436.5 371,-442.5 365,-442.5 365,-442.5 277,-442.5 277,-442.5 271,-442.5 265,-436.5 265,-430.5 265,-430.5 265,-339.5 265,-339.5 265,-333.5 271,-327.5 277,-327.5"/>
<text text-anchor="middle" x="321" y="-427.3" font-family="Times New Roman,serif" font-size="14.00">idx: 0002D030</text>
<polyline fill="none" stroke="black" points="265,-419.5 377,-419.5"/>
<text text-anchor="middle" x="321" y="-404.3" font-family="Times New Roman,serif" font-size="14.00">value: tall</text>
<polyline fill="none" stroke="black" points="265,-396.5 377,-396.5"/>
<text text-anchor="middle" x="321" y="-381.3" font-family="Times New Roman,serif" font-size="14.00">left: 0002D000</text>
<polyline fill="none" stroke="black" points="265,-373.5 377,-373.5"/>
<text text-anchor="middle" x="321" y="-358.3" font-family="Times New Roman,serif" font-size="14.00">right: 0002D150</text>
<polyline fill="none" stroke="black" points="265,-350.5 377,-350.5"/>
<text text-anchor="middle" x="321" y="-335.3" font-family="Times New Roman,serif" font-size="14.00">parent: 00000000</text>
</g>
<!-- node5&#45;&gt;node7 -->
<g id="edge7" class="edge">
<title>node5&#45;&gt;node7</title>
<path fill="none" stroke="#ccff99" d="M321,-479.29C321,-470.7 321,-461.78 321,-453"/>
<polygon fill="#ccff99" stroke="#ccff99" points="324.5,-452.79 321,-442.79 317.5,-452.79 324.5,-452.79"/>
</g>
<!-- node8 -->
<g id="node9" class="node">
<title>node8</title>
<path fill="#00bfff" stroke="black" d="M147,-175.5C147,-175.5 235,-175.5 235,-175.5 241,-175.5 247,-181.5 247,-187.5 247,-187.5 247,-278.5 247,-278.5 247,-284.5 241,-290.5 235,-290.5 235,-290.5 147,-290.5 147,-290.5 141,-290.5 135,-284.5 135,-278.5 135,-278.5 135,-187.5 135,-187.5 135,-181.5 141,-175.5 147,-175.5"/>
<text text-anchor="middle" x="191" y="-275.3" font-family="Times New Roman,serif" font-size="14.00">idx: 0002D000</text>
<polyline fill="none" stroke="black" points="135,-267.5 247,-267.5"/>
<text text-anchor="middle" x="191" y="-252.3" font-family="Times New Roman,serif" font-size="14.00">value: giraffe</text>
<polyline fill="none" stroke="black" points="135,-244.5 247,-244.5"/>
<text text-anchor="middle" x="191" y="-229.3" font-family="Times New Roman,serif" font-size="14.00">left: 00000000</text>
<polyline fill="none" stroke="black" points="135,-221.5 247,-221.5"/>
<text text-anchor="middle" x="191" y="-206.3" font-family="Times New Roman,serif" font-size="14.00">right: 00000000</text>
<polyline fill="none" stroke="black" points="135,-198.5 247,-198.5"/>
<text text-anchor="middle" x="191" y="-183.3" font-family="Times New Roman,serif" font-size="14.00">parent: 00000000</text>
</g>
<!-- node7&#45;&gt;node8 -->
<g id="edge8" class="edge">
<title>node7&#45;&gt;node8</title>
<path fill="none" stroke="#00bfff" d="M271.85,-327.29C263.68,-317.86 255.16,-308.03 246.84,-298.43"/>
<polygon fill="#00bfff" stroke="#00bfff" points="249.41,-296.05 240.22,-290.79 244.12,-300.64 249.41,-296.05"/>
</g>
<!-- node9 -->
<g id="node10" class="node">
<title>node9</title>
<path fill="#ccff99" stroke="black" d="M277,-175.5C277,-175.5 365,-175.5 365,-175.5 371,-175.5 377,-181.5 377,-187.5 377,-187.5 377,-278.5 377,-278.5 377,-284.5 371,-290.5 365,-290.5 365,-290.5 277,-290.5 277,-290.5 271,-290.5 265,-284.5 265,-278.5 265,-278.5 265,-187.5 265,-187.5 265,-181.5 271,-175.5 277,-175.5"/>
<text text-anchor="middle" x="321" y="-275.3" font-family="Times New Roman,serif" font-size="14.00">idx: 0002D150</text>
<polyline fill="none" stroke="black" points="265,-267.5 377,-267.5"/>
<text text-anchor="middle" x="321" y="-252.3" font-family="Times New Roman,serif" font-size="14.00">value: frog</text>
<polyline fill="none" stroke="black" points="265,-244.5 377,-244.5"/>
<text text-anchor="middle" x="321" y="-229.3" font-family="Times New Roman,serif" font-size="14.00">left: 00000000</text>
<polyline fill="none" stroke="black" points="265,-221.5 377,-221.5"/>
<text text-anchor="middle" x="321" y="-206.3" font-family="Times New Roman,serif" font-size="14.00">right: 00000000</text>
<polyline fill="none" stroke="black" points="265,-198.5 377,-198.5"/>
<text text-anchor="middle" x="321" y="-183.3" font-family="Times New Roman,serif" font-size="14.00">parent: 00000000</text>
</g>
<!-- node7&#45;&gt;node9 -->
<g id="edge9" class="edge">
<title>node7&#45;&gt;node9</title>
<path fill="none" stroke="#ccff99" d="M321,-327.29C321,-318.7 321,-309.78 321,-301"/>
<polygon fill="#ccff99" stroke="#ccff99" points="324.5,-300.79 321,-290.79 317.5,-300.79 324.5,-300.79"/>
</g>
<!-- node11 -->
<g id="node12" class="node">
<title>node11</title>
<path fill="#00bfff" stroke="black" d="M472,-327.5C472,-327.5 560,-327.5 560,-327.5 566,-327.5 572,-333.5 572,-339.5 572,-339.5 572,-430.5 572,-430.5 572,-436.5 566,-442.5 560,-442.5 560,-442.5 472,-442.5 472,-442.5 466,-442.5 460,-436.5 460,-430.5 460,-430.5 460,-339.5 460,-339.5 460,-333.5 466,-327.5 472,-327.5"/>
<text text-anchor="middle" x="516" y="-427.3" font-family="Times New Roman,serif" font-size="14.00">idx: 0002D0F0</text>
<polyline fill="none" stroke="black" points="460,-419.5 572,-419.5"/>
<text text-anchor="middle" x="516" y="-404.3" font-family="Times New Roman,serif" font-size="14.00">value: fly</text>
<polyline fill="none" stroke="black" points="460,-396.5 572,-396.5"/>
<text text-anchor="middle" x="516" y="-381.3" font-family="Times New Roman,serif" font-size="14.00">left: 0002D048</text>
<polyline fill="none" stroke="black" points="460,-373.5 572,-373.5"/>
<text text-anchor="middle" x="516" y="-358.3" font-family="Times New Roman,serif" font-size="14.00">right: 0002D060</text>
<polyline fill="none" stroke="black" points="460,-350.5 572,-350.5"/>
<text text-anchor="middle" x="516" y="-335.3" font-family="Times New Roman,serif" font-size="14.00">parent: 00000000</text>
</g>
<!-- node10&#45;&gt;node11 -->
<g id="edge11" class="edge">
<title>node10&#45;&gt;node11</title>
<path fill="none" stroke="#00bfff" d="M516,-479.29C516,-470.7 516,-461.78 516,-453"/>
<polygon fill="#00bfff" stroke="#00bfff" points="519.5,-452.79 516,-442.79 512.5,-452.79 519.5,-452.79"/>
</g>
<!-- node16 -->
<g id="node17" class="node">
<title>node16</title>
<path fill="#ccff99" stroke="black" d="M667,-327.5C667,-327.5 755,-327.5 755,-327.5 761,-327.5 767,-333.5 767,-339.5 767,-339.5 767,-430.5 767,-430.5 767,-436.5 761,-442.5 755,-442.5 755,-442.5 667,-442.5 667,-442.5 661,-442.5 655,-436.5 655,-430.5 655,-430.5 655,-339.5 655,-339.5 655,-333.5 661,-327.5 667,-327.5"/>
<text text-anchor="middle" x="711" y="-427.3" font-family="Times New Roman,serif" font-size="14.00">idx: 0002D5D0</text>
<polyline fill="none" stroke="black" points="655,-419.5 767,-419.5"/>
<text text-anchor="middle" x="711" y="-404.3" font-family="Times New Roman,serif" font-size="14.00">value: thin</text>
<polyline fill="none" stroke="black" points="655,-396.5 767,-396.5"/>
<text text-anchor="middle" x="711" y="-381.3" font-family="Times New Roman,serif" font-size="14.00">left: 0002D420</text>
<polyline fill="none" stroke="black" points="655,-373.5 767,-373.5"/>
<text text-anchor="middle" x="711" y="-358.3" font-family="Times New Roman,serif" font-size="14.00">right: 0002D648</text>
<polyline fill="none" stroke="black" points="655,-350.5 767,-350.5"/>
<text text-anchor="middle" x="711" y="-335.3" font-family="Times New Roman,serif" font-size="14.00">parent: 00000000</text>
</g>
<!-- node10&#45;&gt;node16 -->
<g id="edge16" class="edge">
<title>node10&#45;&gt;node16</title>
<path fill="none" stroke="#ccff99" d="M572.14,-492.82C595.49,-474.85 622.73,-453.9 646.86,-435.34"/>
<polygon fill="#ccff99" stroke="#ccff99" points="649.13,-438.01 654.92,-429.14 644.86,-432.46 649.13,-438.01"/>
</g>
<!-- node12 -->
<g id="node13" class="node">
<title>node12</title>
<path fill="#00bfff" stroke="black" d="M407,-175.5C407,-175.5 495,-175.5 495,-175.5 501,-175.5 507,-181.5 507,-187.5 507,-187.5 507,-278.5 507,-278.5 507,-284.5 501,-290.5 495,-290.5 495,-290.5 407,-290.5 407,-290.5 401,-290.5 395,-284.5 395,-278.5 395,-278.5 395,-187.5 395,-187.5 395,-181.5 401,-175.5 407,-175.5"/>
<text text-anchor="middle" x="451" y="-275.3" font-family="Times New Roman,serif" font-size="14.00">idx: 0002D048</text>
<polyline fill="none" stroke="black" points="395,-267.5 507,-267.5"/>
<text text-anchor="middle" x="451" y="-252.3" font-family="Times New Roman,serif" font-size="14.00">value: rocket</text>
<polyline fill="none" stroke="black" points="395,-244.5 507,-244.5"/>
<text text-anchor="middle" x="451" y="-229.3" font-family="Times New Roman,serif" font-size="14.00">left: 00000000</text>
<polyline fill="none" stroke="black" points="395,-221.5 507,-221.5"/>
<text text-anchor="middle" x="451" y="-206.3" font-family="Times New Roman,serif" font-size="14.00">right: 00000000</text>
<polyline fill="none" stroke="black" points="395,-198.5 507,-198.5"/>
<text text-anchor="middle" x="451" y="-183.3" font-family="Times New Roman,serif" font-size="14.00">parent: 00000000</text>
</g>
<!-- node11&#45;&gt;node12 -->
<g id="edge12" class="edge">
<title>node11&#45;&gt;node12</title>
<path fill="none" stroke="#00bfff" d="M491.43,-327.29C487.58,-318.42 483.58,-309.19 479.66,-300.14"/>
<polygon fill="#00bfff" stroke="#00bfff" points="482.8,-298.57 475.61,-290.79 476.37,-301.36 482.8,-298.57"/>
</g>
<!-- node13 -->
<g id="node14" class="node">
<title>node13</title>
<path fill="#ccff99" stroke="black" d="M537,-175.5C537,-175.5 625,-175.5 625,-175.5 631,-175.5 637,-181.5 637,-187.5 637,-187.5 637,-278.5 637,-278.5 637,-284.5 631,-290.5 625,-290.5 625,-290.5 537,-290.5 537,-290.5 531,-290.5 525,-284.5 525,-278.5 525,-278.5 525,-187.5 525,-187.5 525,-181.5 531,-175.5 537,-175.5"/>
<text text-anchor="middle" x="581" y="-275.3" font-family="Times New Roman,serif" font-size="14.00">idx: 0002D060</text>
<polyline fill="none" stroke="black" points="525,-267.5 637,-267.5"/>
<text text-anchor="middle" x="581" y="-252.3" font-family="Times New Roman,serif" font-size="14.00">value: drive</text>
<polyline fill="none" stroke="black" points="525,-244.5 637,-244.5"/>
<text text-anchor="middle" x="581" y="-229.3" font-family="Times New Roman,serif" font-size="14.00">left: 0002D480</text>
<polyline fill="none" stroke="black" points="525,-221.5 637,-221.5"/>
<text text-anchor="middle" x="581" y="-206.3" font-family="Times New Roman,serif" font-size="14.00">right: 0002D5B8</text>
<polyline fill="none" stroke="black" points="525,-198.5 637,-198.5"/>
<text text-anchor="middle" x="581" y="-183.3" font-family="Times New Roman,serif" font-size="14.00">parent: 00000000</text>
</g>
<!-- node11&#45;&gt;node13 -->
<g id="edge13" class="edge">
<title>node11&#45;&gt;node13</title>
<path fill="none" stroke="#ccff99" d="M540.57,-327.29C544.42,-318.42 548.42,-309.19 552.34,-300.14"/>
<polygon fill="#ccff99" stroke="#ccff99" points="555.63,-301.36 556.39,-290.79 549.2,-298.57 555.63,-301.36"/>
</g>
<!-- node14 -->
<g id="node15" class="node">
<title>node14</title>
<path fill="#00bfff" stroke="black" d="M472,-23.5C472,-23.5 560,-23.5 560,-23.5 566,-23.5 572,-29.5 572,-35.5 572,-35.5 572,-126.5 572,-126.5 572,-132.5 566,-138.5 560,-138.5 560,-138.5 472,-138.5 472,-138.5 466,-138.5 460,-132.5 460,-126.5 460,-126.5 460,-35.5 460,-35.5 460,-29.5 466,-23.5 472,-23.5"/>
<text text-anchor="middle" x="516" y="-123.3" font-family="Times New Roman,serif" font-size="14.00">idx: 0002D480</text>
<polyline fill="none" stroke="black" points="460,-115.5 572,-115.5"/>
<text text-anchor="middle" x="516" y="-100.3" font-family="Times New Roman,serif" font-size="14.00">value: car</text>
<polyline fill="none" stroke="black" points="460,-92.5 572,-92.5"/>
<text text-anchor="middle" x="516" y="-77.3" font-family="Times New Roman,serif" font-size="14.00">left: 00000000</text>
<polyline fill="none" stroke="black" points="460,-69.5 572,-69.5"/>
<text text-anchor="middle" x="516" y="-54.3" font-family="Times New Roman,serif" font-size="14.00">right: 00000000</text>
<polyline fill="none" stroke="black" points="460,-46.5 572,-46.5"/>
<text text-anchor="middle" x="516" y="-31.3" font-family="Times New Roman,serif" font-size="14.00">parent: 00000000</text>
</g>
<!-- node13&#45;&gt;node14 -->
<g id="edge14" class="edge">
<title>node13&#45;&gt;node14</title>
<path fill="none" stroke="#00bfff" d="M556.43,-175.29C552.58,-166.42 548.58,-157.19 544.66,-148.14"/>
<polygon fill="#00bfff" stroke="#00bfff" points="547.8,-146.57 540.61,-138.79 541.37,-149.36 547.8,-146.57"/>
</g>
<!-- node15 -->
<g id="node16" class="node">
<title>node15</title>
<path fill="#ccff99" stroke="black" d="M602,-23.5C602,-23.5 690,-23.5 690,-23.5 696,-23.5 702,-29.5 702,-35.5 702,-35.5 702,-126.5 702,-126.5 702,-132.5 696,-138.5 690,-138.5 690,-138.5 602,-138.5 602,-138.5 596,-138.5 590,-132.5 590,-126.5 590,-126.5 590,-35.5 590,-35.5 590,-29.5 596,-23.5 602,-23.5"/>
<text text-anchor="middle" x="646" y="-123.3" font-family="Times New Roman,serif" font-size="14.00">idx: 0002D5B8</text>
<polyline fill="none" stroke="black" points="590,-115.5 702,-115.5"/>
<text text-anchor="middle" x="646" y="-100.3" font-family="Times New Roman,serif" font-size="14.00">value: house</text>
<polyline fill="none" stroke="black" points="590,-92.5 702,-92.5"/>
<text text-anchor="middle" x="646" y="-77.3" font-family="Times New Roman,serif" font-size="14.00">left: 00000000</text>
<polyline fill="none" stroke="black" points="590,-69.5 702,-69.5"/>
<text text-anchor="middle" x="646" y="-54.3" font-family="Times New Roman,serif" font-size="14.00">right: 00000000</text>
<polyline fill="none" stroke="black" points="590,-46.5 702,-46.5"/>
<text text-anchor="middle" x="646" y="-31.3" font-family="Times New Roman,serif" font-size="14.00">parent: 00000000</text>
</g>
<!-- node13&#45;&gt;node15 -->
<g id="edge15" class="edge">
<title>node13&#45;&gt;node15</title>
<path fill="none" stroke="#ccff99" d="M605.57,-175.29C609.42,-166.42 613.42,-157.19 617.34,-148.14"/>
<polygon fill="#ccff99" stroke="#ccff99" points="620.63,-149.36 621.39,-138.79 614.2,-146.57 620.63,-149.36"/>
</g>
<!-- node17 -->
<g id="node18" class="node">
<title>node17</title>
<path fill="#00bfff" stroke="black" d="M667,-175.5C667,-175.5 755,-175.5 755,-175.5 761,-175.5 767,-181.5 767,-187.5 767,-187.5 767,-278.5 767,-278.5 767,-284.5 761,-290.5 755,-290.5 755,-290.5 667,-290.5 667,-290.5 661,-290.5 655,-284.5 655,-278.5 655,-278.5 655,-187.5 655,-187.5 655,-181.5 661,-175.5 667,-175.5"/>
<text text-anchor="middle" x="711" y="-275.3" font-family="Times New Roman,serif" font-size="14.00">idx: 0002D420</text>
<polyline fill="none" stroke="black" points="655,-267.5 767,-267.5"/>
<text text-anchor="middle" x="711" y="-252.3" font-family="Times New Roman,serif" font-size="14.00">value: paper</text>
<polyline fill="none" stroke="black" points="655,-244.5 767,-244.5"/>
<text text-anchor="middle" x="711" y="-229.3" font-family="Times New Roman,serif" font-size="14.00">left: 00000000</text>
<polyline fill="none" stroke="black" points="655,-221.5 767,-221.5"/>
<text text-anchor="middle" x="711" y="-206.3" font-family="Times New Roman,serif" font-size="14.00">right: 00000000</text>
<polyline fill="none" stroke="black" points="655,-198.5 767,-198.5"/>
<text text-anchor="middle" x="711" y="-183.3" font-family="Times New Roman,serif" font-size="14.00">parent: 00000000</text>
</g>
<!-- node16&#45;&gt;node17 -->
<g id="edge17" class="edge">
<title>node16&#45;&gt;node17</title>
<path fill="none" stroke="#00bfff" d="M711,-327.29C711,-318.7 711,-309.78 711,-301"/>
<polygon fill="#00bfff" stroke="#00bfff" points="714.5,-300.79 711,-290.79 707.5,-300.79 714.5,-300.79"/>
</g>
<!-- node18 -->
<g id="node19" class="node">
<title>node18</title>
<path fill="#ccff99" stroke="black" d="M797,-175.5C797,-175.5 885,-175.5 885,-175.5 891,-175.5 897,-181.5 897,-187.5 897,-187.5 897,-278.5 897,-278.5 897,-284.5 891,-290.5 885,-290.5 885,-290.5 797,-290.5 797,-290.5 791,-290.5 785,-284.5 785,-278.5 785,-278.5 785,-187.5 785,-187.5 785,-181.5 791,-175.5 797,-175.5"/>
<text text-anchor="middle" x="841" y="-275.3" font-family="Times New Roman,serif" font-size="14.00">idx: 0002D648</text>
<polyline fill="none" stroke="black" points="785,-267.5 897,-267.5"/>
<text text-anchor="middle" x="841" y="-252.3" font-family="Times New Roman,serif" font-size="14.00">value: grass</text>
<polyline fill="none" stroke="black" points="785,-244.5 897,-244.5"/>
<text text-anchor="middle" x="841" y="-229.3" font-family="Times New Roman,serif" font-size="14.00">left: 00000000</text>
<polyline fill="none" stroke="black" points="785,-221.5 897,-221.5"/>
<text text-anchor="middle" x="841" y="-206.3" font-family="Times New Roman,serif" font-size="14.00">right: 00000000</text>
<polyline fill="none" stroke="black" points="785,-198.5 897,-198.5"/>
<text text-anchor="middle" x="841" y="-183.3" font-family="Times New Roman,serif" font-size="14.00">parent: 00000000</text>
</g>
<!-- node16&#45;&gt;node18 -->
<g id="edge18" class="edge">
<title>node16&#45;&gt;node18</title>
<path fill="none" stroke="#ccff99" d="M760.15,-327.29C768.32,-317.86 776.84,-308.03 785.16,-298.43"/>
<polygon fill="#ccff99" stroke="#ccff99" points="787.88,-300.64 791.78,-290.79 782.59,-296.05 787.88,-300.64"/>
</g>
</g>
</svg>
