<?xml version="1.0" encoding="UTF-8" standalone="no"?>
<!DOCTYPE svg PUBLIC "-//W3C//DTD SVG 1.1//EN"
 "http://www.w3.org/Graphics/SVG/1.1/DTD/svg11.dtd">
<!-- Generated by graphviz version 6.0.2 (20221011.1828)
 -->
<!-- Title: List Pages: 1 -->
<svg width="933pt" height="907pt"
 viewBox="0.00 0.00 932.50 907.00" xmlns="http://www.w3.org/2000/svg" xmlns:xlink="http://www.w3.org/1999/xlink">
<g id="graph0" class="graph" transform="scale(1 1) rotate(0) translate(4 903)">
<title>List</title>
<polygon fill="#696969" stroke="none" points="-4,4 -4,-903 928.5,-903 928.5,4 -4,4"/>
<text text-anchor="middle" x="462.25" y="-7.8" font-family="Times New Roman,serif" font-size="14.00">tree_dump from function print_database, Tree/akin.cpp:214</text>
<!-- node0 -->
<g id="node1" class="node">
<title>node0</title>
<path fill="#ff0000" stroke="black" d="M214.5,-783.5C214.5,-783.5 302.5,-783.5 302.5,-783.5 308.5,-783.5 314.5,-789.5 314.5,-795.5 314.5,-795.5 314.5,-886.5 314.5,-886.5 314.5,-892.5 308.5,-898.5 302.5,-898.5 302.5,-898.5 214.5,-898.5 214.5,-898.5 208.5,-898.5 202.5,-892.5 202.5,-886.5 202.5,-886.5 202.5,-795.5 202.5,-795.5 202.5,-789.5 208.5,-783.5 214.5,-783.5"/>
<text text-anchor="middle" x="258.5" y="-883.3" font-family="Times New Roman,serif" font-size="14.00">idx: 02985BA8</text>
<polyline fill="none" stroke="black" points="202.5,-875.5 314.5,-875.5"/>
<text text-anchor="middle" x="258.5" y="-860.3" font-family="Times New Roman,serif" font-size="14.00">value: yellow</text>
<polyline fill="none" stroke="black" points="202.5,-852.5 314.5,-852.5"/>
<text text-anchor="middle" x="258.5" y="-837.3" font-family="Times New Roman,serif" font-size="14.00">left: 02985D58</text>
<polyline fill="none" stroke="black" points="202.5,-829.5 314.5,-829.5"/>
<text text-anchor="middle" x="258.5" y="-814.3" font-family="Times New Roman,serif" font-size="14.00">right: 02985CB0</text>
<polyline fill="none" stroke="black" points="202.5,-806.5 314.5,-806.5"/>
<text text-anchor="middle" x="258.5" y="-791.3" font-family="Times New Roman,serif" font-size="14.00">parent: 00000000</text>
</g>
<!-- node1 -->
<g id="node2" class="node">
<title>node1</title>
<path fill="#00bfff" stroke="black" d="M133.5,-631.5C133.5,-631.5 241.5,-631.5 241.5,-631.5 247.5,-631.5 253.5,-637.5 253.5,-643.5 253.5,-643.5 253.5,-734.5 253.5,-734.5 253.5,-740.5 247.5,-746.5 241.5,-746.5 241.5,-746.5 133.5,-746.5 133.5,-746.5 127.5,-746.5 121.5,-740.5 121.5,-734.5 121.5,-734.5 121.5,-643.5 121.5,-643.5 121.5,-637.5 127.5,-631.5 133.5,-631.5"/>
<text text-anchor="middle" x="187.5" y="-731.3" font-family="Times New Roman,serif" font-size="14.00">idx: 02985D58</text>
<polyline fill="none" stroke="black" points="121.5,-723.5 253.5,-723.5"/>
<text text-anchor="middle" x="187.5" y="-708.3" font-family="Times New Roman,serif" font-size="14.00">value: worn on a belt</text>
<polyline fill="none" stroke="black" points="121.5,-700.5 253.5,-700.5"/>
<text text-anchor="middle" x="187.5" y="-685.3" font-family="Times New Roman,serif" font-size="14.00">left: 02985BD8</text>
<polyline fill="none" stroke="black" points="121.5,-677.5 253.5,-677.5"/>
<text text-anchor="middle" x="187.5" y="-662.3" font-family="Times New Roman,serif" font-size="14.00">right: 02985C38</text>
<polyline fill="none" stroke="black" points="121.5,-654.5 253.5,-654.5"/>
<text text-anchor="middle" x="187.5" y="-639.3" font-family="Times New Roman,serif" font-size="14.00">parent: 02985BA8</text>
</g>
<!-- node0&#45;&gt;node1 -->
<g id="edge1" class="edge">
<title>node0&#45;&gt;node1</title>
<path fill="none" stroke="#00bfff" d="M231.66,-783.29C227.42,-774.33 223,-765 218.67,-755.85"/>
<polygon fill="#00bfff" stroke="#00bfff" points="221.82,-754.33 214.38,-746.79 215.49,-757.32 221.82,-754.33"/>
</g>
<!-- node4 -->
<g id="node5" class="node">
<title>node4</title>
<path fill="#ccff99" stroke="black" d="M284,-631.5C284,-631.5 377,-631.5 377,-631.5 383,-631.5 389,-637.5 389,-643.5 389,-643.5 389,-734.5 389,-734.5 389,-740.5 383,-746.5 377,-746.5 377,-746.5 284,-746.5 284,-746.5 278,-746.5 272,-740.5 272,-734.5 272,-734.5 272,-643.5 272,-643.5 272,-637.5 278,-631.5 284,-631.5"/>
<text text-anchor="middle" x="330.5" y="-731.3" font-family="Times New Roman,serif" font-size="14.00">idx: 02985CB0</text>
<polyline fill="none" stroke="black" points="272,-723.5 389,-723.5"/>
<text text-anchor="middle" x="330.5" y="-708.3" font-family="Times New Roman,serif" font-size="14.00">value: alive</text>
<polyline fill="none" stroke="black" points="272,-700.5 389,-700.5"/>
<text text-anchor="middle" x="330.5" y="-685.3" font-family="Times New Roman,serif" font-size="14.00">left: 02985BF0</text>
<polyline fill="none" stroke="black" points="272,-677.5 389,-677.5"/>
<text text-anchor="middle" x="330.5" y="-662.3" font-family="Times New Roman,serif" font-size="14.00">right: 02985C68</text>
<polyline fill="none" stroke="black" points="272,-654.5 389,-654.5"/>
<text text-anchor="middle" x="330.5" y="-639.3" font-family="Times New Roman,serif" font-size="14.00">parent: 02985BA8</text>
</g>
<!-- node0&#45;&gt;node4 -->
<g id="edge4" class="edge">
<title>node0&#45;&gt;node4</title>
<path fill="none" stroke="#ccff99" d="M285.72,-783.29C290.02,-774.33 294.5,-765 298.89,-755.85"/>
<polygon fill="#ccff99" stroke="#ccff99" points="302.07,-757.32 303.24,-746.79 295.76,-754.29 302.07,-757.32"/>
</g>
<!-- node2 -->
<g id="node3" class="node">
<title>node2</title>
<path fill="#00bfff" stroke="black" d="M12,-479.5C12,-479.5 103,-479.5 103,-479.5 109,-479.5 115,-485.5 115,-491.5 115,-491.5 115,-582.5 115,-582.5 115,-588.5 109,-594.5 103,-594.5 103,-594.5 12,-594.5 12,-594.5 6,-594.5 0,-588.5 0,-582.5 0,-582.5 0,-491.5 0,-491.5 0,-485.5 6,-479.5 12,-479.5"/>
<text text-anchor="middle" x="57.5" y="-579.3" font-family="Times New Roman,serif" font-size="14.00">idx: 02985BD8</text>
<polyline fill="none" stroke="black" points="0,-571.5 115,-571.5"/>
<text text-anchor="middle" x="57.5" y="-556.3" font-family="Times New Roman,serif" font-size="14.00">value: judo belt</text>
<polyline fill="none" stroke="black" points="0,-548.5 115,-548.5"/>
<text text-anchor="middle" x="57.5" y="-533.3" font-family="Times New Roman,serif" font-size="14.00">left: 00000000</text>
<polyline fill="none" stroke="black" points="0,-525.5 115,-525.5"/>
<text text-anchor="middle" x="57.5" y="-510.3" font-family="Times New Roman,serif" font-size="14.00">right: 00000000</text>
<polyline fill="none" stroke="black" points="0,-502.5 115,-502.5"/>
<text text-anchor="middle" x="57.5" y="-487.3" font-family="Times New Roman,serif" font-size="14.00">parent: 02985D58</text>
</g>
<!-- node1&#45;&gt;node2 -->
<g id="edge2" class="edge">
<title>node1&#45;&gt;node2</title>
<path fill="none" stroke="#00bfff" d="M138.35,-631.29C130.18,-621.86 121.66,-612.03 113.34,-602.43"/>
<polygon fill="#00bfff" stroke="#00bfff" points="115.91,-600.05 106.72,-594.79 110.62,-604.64 115.91,-600.05"/>
</g>
<!-- node3 -->
<g id="node4" class="node">
<title>node3</title>
<path fill="#ccff99" stroke="black" d="M145,-479.5C145,-479.5 236,-479.5 236,-479.5 242,-479.5 248,-485.5 248,-491.5 248,-491.5 248,-582.5 248,-582.5 248,-588.5 242,-594.5 236,-594.5 236,-594.5 145,-594.5 145,-594.5 139,-594.5 133,-588.5 133,-582.5 133,-582.5 133,-491.5 133,-491.5 133,-485.5 139,-479.5 145,-479.5"/>
<text text-anchor="middle" x="190.5" y="-579.3" font-family="Times New Roman,serif" font-size="14.00">idx: 02985C38</text>
<polyline fill="none" stroke="black" points="133,-571.5 248,-571.5"/>
<text text-anchor="middle" x="190.5" y="-556.3" font-family="Times New Roman,serif" font-size="14.00">value: sun</text>
<polyline fill="none" stroke="black" points="133,-548.5 248,-548.5"/>
<text text-anchor="middle" x="190.5" y="-533.3" font-family="Times New Roman,serif" font-size="14.00">left: 00000000</text>
<polyline fill="none" stroke="black" points="133,-525.5 248,-525.5"/>
<text text-anchor="middle" x="190.5" y="-510.3" font-family="Times New Roman,serif" font-size="14.00">right: 00000000</text>
<polyline fill="none" stroke="black" points="133,-502.5 248,-502.5"/>
<text text-anchor="middle" x="190.5" y="-487.3" font-family="Times New Roman,serif" font-size="14.00">parent: 02985D58</text>
</g>
<!-- node1&#45;&gt;node3 -->
<g id="edge3" class="edge">
<title>node1&#45;&gt;node3</title>
<path fill="none" stroke="#ccff99" d="M188.63,-631.29C188.81,-622.7 188.98,-613.78 189.16,-605"/>
<polygon fill="#ccff99" stroke="#ccff99" points="192.66,-604.86 189.36,-594.79 185.66,-604.72 192.66,-604.86"/>
</g>
<!-- node5 -->
<g id="node6" class="node">
<title>node5</title>
<path fill="#00bfff" stroke="black" d="M282,-479.5C282,-479.5 375,-479.5 375,-479.5 381,-479.5 387,-485.5 387,-491.5 387,-491.5 387,-582.5 387,-582.5 387,-588.5 381,-594.5 375,-594.5 375,-594.5 282,-594.5 282,-594.5 276,-594.5 270,-588.5 270,-582.5 270,-582.5 270,-491.5 270,-491.5 270,-485.5 276,-479.5 282,-479.5"/>
<text text-anchor="middle" x="328.5" y="-579.3" font-family="Times New Roman,serif" font-size="14.00">idx: 02985BF0</text>
<polyline fill="none" stroke="black" points="270,-571.5 387,-571.5"/>
<text text-anchor="middle" x="328.5" y="-556.3" font-family="Times New Roman,serif" font-size="14.00">value: grey</text>
<polyline fill="none" stroke="black" points="270,-548.5 387,-548.5"/>
<text text-anchor="middle" x="328.5" y="-533.3" font-family="Times New Roman,serif" font-size="14.00">left: 02985D10</text>
<polyline fill="none" stroke="black" points="270,-525.5 387,-525.5"/>
<text text-anchor="middle" x="328.5" y="-510.3" font-family="Times New Roman,serif" font-size="14.00">right: 02985C50</text>
<polyline fill="none" stroke="black" points="270,-502.5 387,-502.5"/>
<text text-anchor="middle" x="328.5" y="-487.3" font-family="Times New Roman,serif" font-size="14.00">parent: 02985CB0</text>
</g>
<!-- node4&#45;&gt;node5 -->
<g id="edge5" class="edge">
<title>node4&#45;&gt;node5</title>
<path fill="none" stroke="#00bfff" d="M329.74,-631.29C329.63,-622.7 329.51,-613.78 329.39,-605"/>
<polygon fill="#00bfff" stroke="#00bfff" points="332.89,-604.74 329.26,-594.79 325.89,-604.83 332.89,-604.74"/>
</g>
<!-- node10 -->
<g id="node11" class="node">
<title>node10</title>
<path fill="#ccff99" stroke="black" d="M482,-479.5C482,-479.5 575,-479.5 575,-479.5 581,-479.5 587,-485.5 587,-491.5 587,-491.5 587,-582.5 587,-582.5 587,-588.5 581,-594.5 575,-594.5 575,-594.5 482,-594.5 482,-594.5 476,-594.5 470,-588.5 470,-582.5 470,-582.5 470,-491.5 470,-491.5 470,-485.5 476,-479.5 482,-479.5"/>
<text text-anchor="middle" x="528.5" y="-579.3" font-family="Times New Roman,serif" font-size="14.00">idx: 02985C68</text>
<polyline fill="none" stroke="black" points="470,-571.5 587,-571.5"/>
<text text-anchor="middle" x="528.5" y="-556.3" font-family="Times New Roman,serif" font-size="14.00">value: big</text>
<polyline fill="none" stroke="black" points="470,-548.5 587,-548.5"/>
<text text-anchor="middle" x="528.5" y="-533.3" font-family="Times New Roman,serif" font-size="14.00">left: 02985C98</text>
<polyline fill="none" stroke="black" points="470,-525.5 587,-525.5"/>
<text text-anchor="middle" x="528.5" y="-510.3" font-family="Times New Roman,serif" font-size="14.00">right: 011DC168</text>
<polyline fill="none" stroke="black" points="470,-502.5 587,-502.5"/>
<text text-anchor="middle" x="528.5" y="-487.3" font-family="Times New Roman,serif" font-size="14.00">parent: 02985CB0</text>
</g>
<!-- node4&#45;&gt;node10 -->
<g id="edge10" class="edge">
<title>node4&#45;&gt;node10</title>
<path fill="none" stroke="#ccff99" d="M389.1,-643.6C411.85,-626.37 438.03,-606.54 461.52,-588.74"/>
<polygon fill="#ccff99" stroke="#ccff99" points="463.85,-591.37 469.71,-582.54 459.62,-585.79 463.85,-591.37"/>
</g>
<!-- node6 -->
<g id="node7" class="node">
<title>node6</title>
<path fill="#00bfff" stroke="black" d="M148.5,-327.5C148.5,-327.5 240.5,-327.5 240.5,-327.5 246.5,-327.5 252.5,-333.5 252.5,-339.5 252.5,-339.5 252.5,-430.5 252.5,-430.5 252.5,-436.5 246.5,-442.5 240.5,-442.5 240.5,-442.5 148.5,-442.5 148.5,-442.5 142.5,-442.5 136.5,-436.5 136.5,-430.5 136.5,-430.5 136.5,-339.5 136.5,-339.5 136.5,-333.5 142.5,-327.5 148.5,-327.5"/>
<text text-anchor="middle" x="194.5" y="-427.3" font-family="Times New Roman,serif" font-size="14.00">idx: 02985D10</text>
<polyline fill="none" stroke="black" points="136.5,-419.5 252.5,-419.5"/>
<text text-anchor="middle" x="194.5" y="-404.3" font-family="Times New Roman,serif" font-size="14.00">value: mouse</text>
<polyline fill="none" stroke="black" points="136.5,-396.5 252.5,-396.5"/>
<text text-anchor="middle" x="194.5" y="-381.3" font-family="Times New Roman,serif" font-size="14.00">left: 00000000</text>
<polyline fill="none" stroke="black" points="136.5,-373.5 252.5,-373.5"/>
<text text-anchor="middle" x="194.5" y="-358.3" font-family="Times New Roman,serif" font-size="14.00">right: 00000000</text>
<polyline fill="none" stroke="black" points="136.5,-350.5 252.5,-350.5"/>
<text text-anchor="middle" x="194.5" y="-335.3" font-family="Times New Roman,serif" font-size="14.00">parent: 02985BF0</text>
</g>
<!-- node5&#45;&gt;node6 -->
<g id="edge6" class="edge">
<title>node5&#45;&gt;node6</title>
<path fill="none" stroke="#00bfff" d="M277.84,-479.29C269.42,-469.86 260.63,-460.03 252.05,-450.43"/>
<polygon fill="#00bfff" stroke="#00bfff" points="254.5,-447.91 245.23,-442.79 249.28,-452.58 254.5,-447.91"/>
</g>
<!-- node7 -->
<g id="node8" class="node">
<title>node7</title>
<path fill="#ccff99" stroke="black" d="M282.5,-327.5C282.5,-327.5 374.5,-327.5 374.5,-327.5 380.5,-327.5 386.5,-333.5 386.5,-339.5 386.5,-339.5 386.5,-430.5 386.5,-430.5 386.5,-436.5 380.5,-442.5 374.5,-442.5 374.5,-442.5 282.5,-442.5 282.5,-442.5 276.5,-442.5 270.5,-436.5 270.5,-430.5 270.5,-430.5 270.5,-339.5 270.5,-339.5 270.5,-333.5 276.5,-327.5 282.5,-327.5"/>
<text text-anchor="middle" x="328.5" y="-427.3" font-family="Times New Roman,serif" font-size="14.00">idx: 02985C50</text>
<polyline fill="none" stroke="black" points="270.5,-419.5 386.5,-419.5"/>
<text text-anchor="middle" x="328.5" y="-404.3" font-family="Times New Roman,serif" font-size="14.00">value: tall</text>
<polyline fill="none" stroke="black" points="270.5,-396.5 386.5,-396.5"/>
<text text-anchor="middle" x="328.5" y="-381.3" font-family="Times New Roman,serif" font-size="14.00">left: 02985CF8</text>
<polyline fill="none" stroke="black" points="270.5,-373.5 386.5,-373.5"/>
<text text-anchor="middle" x="328.5" y="-358.3" font-family="Times New Roman,serif" font-size="14.00">right: 02985D28</text>
<polyline fill="none" stroke="black" points="270.5,-350.5 386.5,-350.5"/>
<text text-anchor="middle" x="328.5" y="-335.3" font-family="Times New Roman,serif" font-size="14.00">parent: 02985BF0</text>
</g>
<!-- node5&#45;&gt;node7 -->
<g id="edge7" class="edge">
<title>node5&#45;&gt;node7</title>
<path fill="none" stroke="#ccff99" d="M328.5,-479.29C328.5,-470.7 328.5,-461.78 328.5,-453"/>
<polygon fill="#ccff99" stroke="#ccff99" points="332,-452.79 328.5,-442.79 325,-452.79 332,-452.79"/>
</g>
<!-- node8 -->
<g id="node9" class="node">
<title>node8</title>
<path fill="#00bfff" stroke="black" d="M150,-175.5C150,-175.5 241,-175.5 241,-175.5 247,-175.5 253,-181.5 253,-187.5 253,-187.5 253,-278.5 253,-278.5 253,-284.5 247,-290.5 241,-290.5 241,-290.5 150,-290.5 150,-290.5 144,-290.5 138,-284.5 138,-278.5 138,-278.5 138,-187.5 138,-187.5 138,-181.5 144,-175.5 150,-175.5"/>
<text text-anchor="middle" x="195.5" y="-275.3" font-family="Times New Roman,serif" font-size="14.00">idx: 02985CF8</text>
<polyline fill="none" stroke="black" points="138,-267.5 253,-267.5"/>
<text text-anchor="middle" x="195.5" y="-252.3" font-family="Times New Roman,serif" font-size="14.00">value: giraffe</text>
<polyline fill="none" stroke="black" points="138,-244.5 253,-244.5"/>
<text text-anchor="middle" x="195.5" y="-229.3" font-family="Times New Roman,serif" font-size="14.00">left: 00000000</text>
<polyline fill="none" stroke="black" points="138,-221.5 253,-221.5"/>
<text text-anchor="middle" x="195.5" y="-206.3" font-family="Times New Roman,serif" font-size="14.00">right: 00000000</text>
<polyline fill="none" stroke="black" points="138,-198.5 253,-198.5"/>
<text text-anchor="middle" x="195.5" y="-183.3" font-family="Times New Roman,serif" font-size="14.00">parent: 02985C50</text>
</g>
<!-- node7&#45;&gt;node8 -->
<g id="edge8" class="edge">
<title>node7&#45;&gt;node8</title>
<path fill="none" stroke="#00bfff" d="M278.22,-327.29C269.86,-317.86 261.14,-308.03 252.62,-298.43"/>
<polygon fill="#00bfff" stroke="#00bfff" points="255.11,-295.95 245.85,-290.79 249.87,-300.59 255.11,-295.95"/>
</g>
<!-- node9 -->
<g id="node10" class="node">
<title>node9</title>
<path fill="#ccff99" stroke="black" d="M283,-175.5C283,-175.5 374,-175.5 374,-175.5 380,-175.5 386,-181.5 386,-187.5 386,-187.5 386,-278.5 386,-278.5 386,-284.5 380,-290.5 374,-290.5 374,-290.5 283,-290.5 283,-290.5 277,-290.5 271,-284.5 271,-278.5 271,-278.5 271,-187.5 271,-187.5 271,-181.5 277,-175.5 283,-175.5"/>
<text text-anchor="middle" x="328.5" y="-275.3" font-family="Times New Roman,serif" font-size="14.00">idx: 02985D28</text>
<polyline fill="none" stroke="black" points="271,-267.5 386,-267.5"/>
<text text-anchor="middle" x="328.5" y="-252.3" font-family="Times New Roman,serif" font-size="14.00">value: frog</text>
<polyline fill="none" stroke="black" points="271,-244.5 386,-244.5"/>
<text text-anchor="middle" x="328.5" y="-229.3" font-family="Times New Roman,serif" font-size="14.00">left: 00000000</text>
<polyline fill="none" stroke="black" points="271,-221.5 386,-221.5"/>
<text text-anchor="middle" x="328.5" y="-206.3" font-family="Times New Roman,serif" font-size="14.00">right: 00000000</text>
<polyline fill="none" stroke="black" points="271,-198.5 386,-198.5"/>
<text text-anchor="middle" x="328.5" y="-183.3" font-family="Times New Roman,serif" font-size="14.00">parent: 02985C50</text>
</g>
<!-- node7&#45;&gt;node9 -->
<g id="edge9" class="edge">
<title>node7&#45;&gt;node9</title>
<path fill="none" stroke="#ccff99" d="M328.5,-327.29C328.5,-318.7 328.5,-309.78 328.5,-301"/>
<polygon fill="#ccff99" stroke="#ccff99" points="332,-300.79 328.5,-290.79 325,-300.79 332,-300.79"/>
</g>
<!-- node11 -->
<g id="node12" class="node">
<title>node11</title>
<path fill="#00bfff" stroke="black" d="M483,-327.5C483,-327.5 574,-327.5 574,-327.5 580,-327.5 586,-333.5 586,-339.5 586,-339.5 586,-430.5 586,-430.5 586,-436.5 580,-442.5 574,-442.5 574,-442.5 483,-442.5 483,-442.5 477,-442.5 471,-436.5 471,-430.5 471,-430.5 471,-339.5 471,-339.5 471,-333.5 477,-327.5 483,-327.5"/>
<text text-anchor="middle" x="528.5" y="-427.3" font-family="Times New Roman,serif" font-size="14.00">idx: 02985C98</text>
<polyline fill="none" stroke="black" points="471,-419.5 586,-419.5"/>
<text text-anchor="middle" x="528.5" y="-404.3" font-family="Times New Roman,serif" font-size="14.00">value: fly</text>
<polyline fill="none" stroke="black" points="471,-396.5 586,-396.5"/>
<text text-anchor="middle" x="528.5" y="-381.3" font-family="Times New Roman,serif" font-size="14.00">left: 02985CC8</text>
<polyline fill="none" stroke="black" points="471,-373.5 586,-373.5"/>
<text text-anchor="middle" x="528.5" y="-358.3" font-family="Times New Roman,serif" font-size="14.00">right: 011DC120</text>
<polyline fill="none" stroke="black" points="471,-350.5 586,-350.5"/>
<text text-anchor="middle" x="528.5" y="-335.3" font-family="Times New Roman,serif" font-size="14.00">parent: 02985C68</text>
</g>
<!-- node10&#45;&gt;node11 -->
<g id="edge11" class="edge">
<title>node10&#45;&gt;node11</title>
<path fill="none" stroke="#00bfff" d="M528.5,-479.29C528.5,-470.7 528.5,-461.78 528.5,-453"/>
<polygon fill="#00bfff" stroke="#00bfff" points="532,-452.79 528.5,-442.79 525,-452.79 532,-452.79"/>
</g>
<!-- node16 -->
<g id="node17" class="node">
<title>node16</title>
<path fill="#ccff99" stroke="black" d="M684,-327.5C684,-327.5 775,-327.5 775,-327.5 781,-327.5 787,-333.5 787,-339.5 787,-339.5 787,-430.5 787,-430.5 787,-436.5 781,-442.5 775,-442.5 775,-442.5 684,-442.5 684,-442.5 678,-442.5 672,-436.5 672,-430.5 672,-430.5 672,-339.5 672,-339.5 672,-333.5 678,-327.5 684,-327.5"/>
<text text-anchor="middle" x="729.5" y="-427.3" font-family="Times New Roman,serif" font-size="14.00">idx: 011DC168</text>
<polyline fill="none" stroke="black" points="672,-419.5 787,-419.5"/>
<text text-anchor="middle" x="729.5" y="-404.3" font-family="Times New Roman,serif" font-size="14.00">value: thin</text>
<polyline fill="none" stroke="black" points="672,-396.5 787,-396.5"/>
<text text-anchor="middle" x="729.5" y="-381.3" font-family="Times New Roman,serif" font-size="14.00">left: 011DC270</text>
<polyline fill="none" stroke="black" points="672,-373.5 787,-373.5"/>
<text text-anchor="middle" x="729.5" y="-358.3" font-family="Times New Roman,serif" font-size="14.00">right: 011DC048</text>
<polyline fill="none" stroke="black" points="672,-350.5 787,-350.5"/>
<text text-anchor="middle" x="729.5" y="-335.3" font-family="Times New Roman,serif" font-size="14.00">parent: 02985C68</text>
</g>
<!-- node10&#45;&gt;node16 -->
<g id="edge16" class="edge">
<title>node10&#45;&gt;node16</title>
<path fill="none" stroke="#ccff99" d="M587.18,-492.21C611.12,-474.34 638.92,-453.6 663.56,-435.21"/>
<polygon fill="#ccff99" stroke="#ccff99" points="665.87,-437.85 671.79,-429.07 661.68,-432.24 665.87,-437.85"/>
</g>
<!-- node12 -->
<g id="node13" class="node">
<title>node12</title>
<path fill="#00bfff" stroke="black" d="M416,-175.5C416,-175.5 507,-175.5 507,-175.5 513,-175.5 519,-181.5 519,-187.5 519,-187.5 519,-278.5 519,-278.5 519,-284.5 513,-290.5 507,-290.5 507,-290.5 416,-290.5 416,-290.5 410,-290.5 404,-284.5 404,-278.5 404,-278.5 404,-187.5 404,-187.5 404,-181.5 410,-175.5 416,-175.5"/>
<text text-anchor="middle" x="461.5" y="-275.3" font-family="Times New Roman,serif" font-size="14.00">idx: 02985CC8</text>
<polyline fill="none" stroke="black" points="404,-267.5 519,-267.5"/>
<text text-anchor="middle" x="461.5" y="-252.3" font-family="Times New Roman,serif" font-size="14.00">value: rocket</text>
<polyline fill="none" stroke="black" points="404,-244.5 519,-244.5"/>
<text text-anchor="middle" x="461.5" y="-229.3" font-family="Times New Roman,serif" font-size="14.00">left: 00000000</text>
<polyline fill="none" stroke="black" points="404,-221.5 519,-221.5"/>
<text text-anchor="middle" x="461.5" y="-206.3" font-family="Times New Roman,serif" font-size="14.00">right: 00000000</text>
<polyline fill="none" stroke="black" points="404,-198.5 519,-198.5"/>
<text text-anchor="middle" x="461.5" y="-183.3" font-family="Times New Roman,serif" font-size="14.00">parent: 02985C98</text>
</g>
<!-- node11&#45;&gt;node12 -->
<g id="edge12" class="edge">
<title>node11&#45;&gt;node12</title>
<path fill="none" stroke="#00bfff" d="M503.17,-327.29C499.21,-318.42 495.09,-309.19 491.04,-300.14"/>
<polygon fill="#00bfff" stroke="#00bfff" points="494.14,-298.49 486.87,-290.79 487.75,-301.35 494.14,-298.49"/>
</g>
<!-- node13 -->
<g id="node14" class="node">
<title>node13</title>
<path fill="#ccff99" stroke="black" d="M549,-175.5C549,-175.5 640,-175.5 640,-175.5 646,-175.5 652,-181.5 652,-187.5 652,-187.5 652,-278.5 652,-278.5 652,-284.5 646,-290.5 640,-290.5 640,-290.5 549,-290.5 549,-290.5 543,-290.5 537,-284.5 537,-278.5 537,-278.5 537,-187.5 537,-187.5 537,-181.5 543,-175.5 549,-175.5"/>
<text text-anchor="middle" x="594.5" y="-275.3" font-family="Times New Roman,serif" font-size="14.00">idx: 011DC120</text>
<polyline fill="none" stroke="black" points="537,-267.5 652,-267.5"/>
<text text-anchor="middle" x="594.5" y="-252.3" font-family="Times New Roman,serif" font-size="14.00">value: drive</text>
<polyline fill="none" stroke="black" points="537,-244.5 652,-244.5"/>
<text text-anchor="middle" x="594.5" y="-229.3" font-family="Times New Roman,serif" font-size="14.00">left: 011DBFD0</text>
<polyline fill="none" stroke="black" points="537,-221.5 652,-221.5"/>
<text text-anchor="middle" x="594.5" y="-206.3" font-family="Times New Roman,serif" font-size="14.00">right: 011DC258</text>
<polyline fill="none" stroke="black" points="537,-198.5 652,-198.5"/>
<text text-anchor="middle" x="594.5" y="-183.3" font-family="Times New Roman,serif" font-size="14.00">parent: 02985C98</text>
</g>
<!-- node11&#45;&gt;node13 -->
<g id="edge13" class="edge">
<title>node11&#45;&gt;node13</title>
<path fill="none" stroke="#ccff99" d="M553.45,-327.29C557.35,-318.42 561.41,-309.19 565.4,-300.14"/>
<polygon fill="#ccff99" stroke="#ccff99" points="568.69,-301.35 569.51,-290.79 562.28,-298.53 568.69,-301.35"/>
</g>
<!-- node14 -->
<g id="node15" class="node">
<title>node14</title>
<path fill="#00bfff" stroke="black" d="M479.5,-23.5C479.5,-23.5 573.5,-23.5 573.5,-23.5 579.5,-23.5 585.5,-29.5 585.5,-35.5 585.5,-35.5 585.5,-126.5 585.5,-126.5 585.5,-132.5 579.5,-138.5 573.5,-138.5 573.5,-138.5 479.5,-138.5 479.5,-138.5 473.5,-138.5 467.5,-132.5 467.5,-126.5 467.5,-126.5 467.5,-35.5 467.5,-35.5 467.5,-29.5 473.5,-23.5 479.5,-23.5"/>
<text text-anchor="middle" x="526.5" y="-123.3" font-family="Times New Roman,serif" font-size="14.00">idx: 011DBFD0</text>
<polyline fill="none" stroke="black" points="467.5,-115.5 585.5,-115.5"/>
<text text-anchor="middle" x="526.5" y="-100.3" font-family="Times New Roman,serif" font-size="14.00">value: car</text>
<polyline fill="none" stroke="black" points="467.5,-92.5 585.5,-92.5"/>
<text text-anchor="middle" x="526.5" y="-77.3" font-family="Times New Roman,serif" font-size="14.00">left: 00000000</text>
<polyline fill="none" stroke="black" points="467.5,-69.5 585.5,-69.5"/>
<text text-anchor="middle" x="526.5" y="-54.3" font-family="Times New Roman,serif" font-size="14.00">right: 00000000</text>
<polyline fill="none" stroke="black" points="467.5,-46.5 585.5,-46.5"/>
<text text-anchor="middle" x="526.5" y="-31.3" font-family="Times New Roman,serif" font-size="14.00">parent: 011DC120</text>
</g>
<!-- node13&#45;&gt;node14 -->
<g id="edge14" class="edge">
<title>node13&#45;&gt;node14</title>
<path fill="none" stroke="#00bfff" d="M568.79,-175.29C564.77,-166.42 560.59,-157.19 556.48,-148.14"/>
<polygon fill="#00bfff" stroke="#00bfff" points="559.56,-146.45 552.24,-138.79 553.19,-149.34 559.56,-146.45"/>
</g>
<!-- node15 -->
<g id="node16" class="node">
<title>node15</title>
<path fill="#ccff99" stroke="black" d="M615.5,-23.5C615.5,-23.5 709.5,-23.5 709.5,-23.5 715.5,-23.5 721.5,-29.5 721.5,-35.5 721.5,-35.5 721.5,-126.5 721.5,-126.5 721.5,-132.5 715.5,-138.5 709.5,-138.5 709.5,-138.5 615.5,-138.5 615.5,-138.5 609.5,-138.5 603.5,-132.5 603.5,-126.5 603.5,-126.5 603.5,-35.5 603.5,-35.5 603.5,-29.5 609.5,-23.5 615.5,-23.5"/>
<text text-anchor="middle" x="662.5" y="-123.3" font-family="Times New Roman,serif" font-size="14.00">idx: 011DC258</text>
<polyline fill="none" stroke="black" points="603.5,-115.5 721.5,-115.5"/>
<text text-anchor="middle" x="662.5" y="-100.3" font-family="Times New Roman,serif" font-size="14.00">value: house</text>
<polyline fill="none" stroke="black" points="603.5,-92.5 721.5,-92.5"/>
<text text-anchor="middle" x="662.5" y="-77.3" font-family="Times New Roman,serif" font-size="14.00">left: 00000000</text>
<polyline fill="none" stroke="black" points="603.5,-69.5 721.5,-69.5"/>
<text text-anchor="middle" x="662.5" y="-54.3" font-family="Times New Roman,serif" font-size="14.00">right: 00000000</text>
<polyline fill="none" stroke="black" points="603.5,-46.5 721.5,-46.5"/>
<text text-anchor="middle" x="662.5" y="-31.3" font-family="Times New Roman,serif" font-size="14.00">parent: 011DC120</text>
</g>
<!-- node13&#45;&gt;node15 -->
<g id="edge15" class="edge">
<title>node13&#45;&gt;node15</title>
<path fill="none" stroke="#ccff99" d="M620.21,-175.29C624.23,-166.42 628.41,-157.19 632.52,-148.14"/>
<polygon fill="#ccff99" stroke="#ccff99" points="635.81,-149.34 636.76,-138.79 629.44,-146.45 635.81,-149.34"/>
</g>
<!-- node17 -->
<g id="node18" class="node">
<title>node17</title>
<path fill="#00bfff" stroke="black" d="M682.5,-175.5C682.5,-175.5 776.5,-175.5 776.5,-175.5 782.5,-175.5 788.5,-181.5 788.5,-187.5 788.5,-187.5 788.5,-278.5 788.5,-278.5 788.5,-284.5 782.5,-290.5 776.5,-290.5 776.5,-290.5 682.5,-290.5 682.5,-290.5 676.5,-290.5 670.5,-284.5 670.5,-278.5 670.5,-278.5 670.5,-187.5 670.5,-187.5 670.5,-181.5 676.5,-175.5 682.5,-175.5"/>
<text text-anchor="middle" x="729.5" y="-275.3" font-family="Times New Roman,serif" font-size="14.00">idx: 011DC270</text>
<polyline fill="none" stroke="black" points="670.5,-267.5 788.5,-267.5"/>
<text text-anchor="middle" x="729.5" y="-252.3" font-family="Times New Roman,serif" font-size="14.00">value: paper</text>
<polyline fill="none" stroke="black" points="670.5,-244.5 788.5,-244.5"/>
<text text-anchor="middle" x="729.5" y="-229.3" font-family="Times New Roman,serif" font-size="14.00">left: 00000000</text>
<polyline fill="none" stroke="black" points="670.5,-221.5 788.5,-221.5"/>
<text text-anchor="middle" x="729.5" y="-206.3" font-family="Times New Roman,serif" font-size="14.00">right: 00000000</text>
<polyline fill="none" stroke="black" points="670.5,-198.5 788.5,-198.5"/>
<text text-anchor="middle" x="729.5" y="-183.3" font-family="Times New Roman,serif" font-size="14.00">parent: 011DC168</text>
</g>
<!-- node16&#45;&gt;node17 -->
<g id="edge17" class="edge">
<title>node16&#45;&gt;node17</title>
<path fill="none" stroke="#00bfff" d="M729.5,-327.29C729.5,-318.7 729.5,-309.78 729.5,-301"/>
<polygon fill="#00bfff" stroke="#00bfff" points="733,-300.79 729.5,-290.79 726,-300.79 733,-300.79"/>
</g>
<!-- node18 -->
<g id="node19" class="node">
<title>node18</title>
<path fill="#ccff99" stroke="black" d="M818.5,-175.5C818.5,-175.5 912.5,-175.5 912.5,-175.5 918.5,-175.5 924.5,-181.5 924.5,-187.5 924.5,-187.5 924.5,-278.5 924.5,-278.5 924.5,-284.5 918.5,-290.5 912.5,-290.5 912.5,-290.5 818.5,-290.5 818.5,-290.5 812.5,-290.5 806.5,-284.5 806.5,-278.5 806.5,-278.5 806.5,-187.5 806.5,-187.5 806.5,-181.5 812.5,-175.5 818.5,-175.5"/>
<text text-anchor="middle" x="865.5" y="-275.3" font-family="Times New Roman,serif" font-size="14.00">idx: 011DC048</text>
<polyline fill="none" stroke="black" points="806.5,-267.5 924.5,-267.5"/>
<text text-anchor="middle" x="865.5" y="-252.3" font-family="Times New Roman,serif" font-size="14.00">value: grass</text>
<polyline fill="none" stroke="black" points="806.5,-244.5 924.5,-244.5"/>
<text text-anchor="middle" x="865.5" y="-229.3" font-family="Times New Roman,serif" font-size="14.00">left: 00000000</text>
<polyline fill="none" stroke="black" points="806.5,-221.5 924.5,-221.5"/>
<text text-anchor="middle" x="865.5" y="-206.3" font-family="Times New Roman,serif" font-size="14.00">right: 00000000</text>
<polyline fill="none" stroke="black" points="806.5,-198.5 924.5,-198.5"/>
<text text-anchor="middle" x="865.5" y="-183.3" font-family="Times New Roman,serif" font-size="14.00">parent: 011DC168</text>
</g>
<!-- node16&#45;&gt;node18 -->
<g id="edge18" class="edge">
<title>node16&#45;&gt;node18</title>
<path fill="none" stroke="#ccff99" d="M780.92,-327.29C789.46,-317.86 798.38,-308.03 807.09,-298.43"/>
<polygon fill="#ccff99" stroke="#ccff99" points="809.89,-300.55 814.01,-290.79 804.7,-295.85 809.89,-300.55"/>
</g>
</g>
</svg>
