<?xml version="1.0" encoding="UTF-8" standalone="no"?>
<!DOCTYPE svg PUBLIC "-//W3C//DTD SVG 1.1//EN"
 "http://www.w3.org/Graphics/SVG/1.1/DTD/svg11.dtd">
<!-- Generated by graphviz version 6.0.2 (20221011.1828)
 -->
<!-- Title: List Pages: 1 -->
<svg width="933pt" height="884pt"
 viewBox="0.00 0.00 932.50 884.00" xmlns="http://www.w3.org/2000/svg" xmlns:xlink="http://www.w3.org/1999/xlink">
<g id="graph0" class="graph" transform="scale(1 1) rotate(0) translate(4 880)">
<title>List</title>
<polygon fill="#696969" stroke="none" points="-4,4 -4,-880 928.5,-880 928.5,4 -4,4"/>
<!-- node0 -->
<g id="node1" class="node">
<title>node0</title>
<path fill="#ff0000" stroke="black" d="M220,-760.5C220,-760.5 308,-760.5 308,-760.5 314,-760.5 320,-766.5 320,-772.5 320,-772.5 320,-863.5 320,-863.5 320,-869.5 314,-875.5 308,-875.5 308,-875.5 220,-875.5 220,-875.5 214,-875.5 208,-869.5 208,-863.5 208,-863.5 208,-772.5 208,-772.5 208,-766.5 214,-760.5 220,-760.5"/>
<text text-anchor="middle" x="264" y="-860.3" font-family="Times New Roman,serif" font-size="14.00">idx: 02845CC0</text>
<polyline fill="none" stroke="black" points="208,-852.5 320,-852.5"/>
<text text-anchor="middle" x="264" y="-837.3" font-family="Times New Roman,serif" font-size="14.00">value: yellow</text>
<polyline fill="none" stroke="black" points="208,-829.5 320,-829.5"/>
<text text-anchor="middle" x="264" y="-814.3" font-family="Times New Roman,serif" font-size="14.00">left: 02845CD8</text>
<polyline fill="none" stroke="black" points="208,-806.5 320,-806.5"/>
<text text-anchor="middle" x="264" y="-791.3" font-family="Times New Roman,serif" font-size="14.00">right: 02845C48</text>
<polyline fill="none" stroke="black" points="208,-783.5 320,-783.5"/>
<text text-anchor="middle" x="264" y="-768.3" font-family="Times New Roman,serif" font-size="14.00">parent: 00000000</text>
</g>
<!-- node1 -->
<g id="node2" class="node">
<title>node1</title>
<path fill="#00bfff" stroke="black" d="M139,-608.5C139,-608.5 247,-608.5 247,-608.5 253,-608.5 259,-614.5 259,-620.5 259,-620.5 259,-711.5 259,-711.5 259,-717.5 253,-723.5 247,-723.5 247,-723.5 139,-723.5 139,-723.5 133,-723.5 127,-717.5 127,-711.5 127,-711.5 127,-620.5 127,-620.5 127,-614.5 133,-608.5 139,-608.5"/>
<text text-anchor="middle" x="193" y="-708.3" font-family="Times New Roman,serif" font-size="14.00">idx: 02845CD8</text>
<polyline fill="none" stroke="black" points="127,-700.5 259,-700.5"/>
<text text-anchor="middle" x="193" y="-685.3" font-family="Times New Roman,serif" font-size="14.00">value: worn on a belt</text>
<polyline fill="none" stroke="black" points="127,-677.5 259,-677.5"/>
<text text-anchor="middle" x="193" y="-662.3" font-family="Times New Roman,serif" font-size="14.00">left: 02845D08</text>
<polyline fill="none" stroke="black" points="127,-654.5 259,-654.5"/>
<text text-anchor="middle" x="193" y="-639.3" font-family="Times New Roman,serif" font-size="14.00">right: 02845BB8</text>
<polyline fill="none" stroke="black" points="127,-631.5 259,-631.5"/>
<text text-anchor="middle" x="193" y="-616.3" font-family="Times New Roman,serif" font-size="14.00">parent: 02845CC0</text>
</g>
<!-- node0&#45;&gt;node1 -->
<g id="edge1" class="edge">
<title>node0&#45;&gt;node1</title>
<path fill="none" stroke="#00bfff" d="M237.16,-760.29C232.92,-751.33 228.5,-742 224.17,-732.85"/>
<polygon fill="#00bfff" stroke="#00bfff" points="227.32,-731.33 219.88,-723.79 220.99,-734.32 227.32,-731.33"/>
</g>
<!-- node4 -->
<g id="node5" class="node">
<title>node4</title>
<path fill="#ccff99" stroke="black" d="M289,-608.5C289,-608.5 383,-608.5 383,-608.5 389,-608.5 395,-614.5 395,-620.5 395,-620.5 395,-711.5 395,-711.5 395,-717.5 389,-723.5 383,-723.5 383,-723.5 289,-723.5 289,-723.5 283,-723.5 277,-717.5 277,-711.5 277,-711.5 277,-620.5 277,-620.5 277,-614.5 283,-608.5 289,-608.5"/>
<text text-anchor="middle" x="336" y="-708.3" font-family="Times New Roman,serif" font-size="14.00">idx: 02845C48</text>
<polyline fill="none" stroke="black" points="277,-700.5 395,-700.5"/>
<text text-anchor="middle" x="336" y="-685.3" font-family="Times New Roman,serif" font-size="14.00">value: alive</text>
<polyline fill="none" stroke="black" points="277,-677.5 395,-677.5"/>
<text text-anchor="middle" x="336" y="-662.3" font-family="Times New Roman,serif" font-size="14.00">left: 02845C60</text>
<polyline fill="none" stroke="black" points="277,-654.5 395,-654.5"/>
<text text-anchor="middle" x="336" y="-639.3" font-family="Times New Roman,serif" font-size="14.00">right: 02845BE8</text>
<polyline fill="none" stroke="black" points="277,-631.5 395,-631.5"/>
<text text-anchor="middle" x="336" y="-616.3" font-family="Times New Roman,serif" font-size="14.00">parent: 02845CC0</text>
</g>
<!-- node0&#45;&gt;node4 -->
<g id="edge4" class="edge">
<title>node0&#45;&gt;node4</title>
<path fill="none" stroke="#ccff99" d="M291.22,-760.29C295.52,-751.33 300,-742 304.39,-732.85"/>
<polygon fill="#ccff99" stroke="#ccff99" points="307.57,-734.32 308.74,-723.79 301.26,-731.29 307.57,-734.32"/>
</g>
<!-- node2 -->
<g id="node3" class="node">
<title>node2</title>
<path fill="#00bfff" stroke="black" d="M12,-456.5C12,-456.5 106,-456.5 106,-456.5 112,-456.5 118,-462.5 118,-468.5 118,-468.5 118,-559.5 118,-559.5 118,-565.5 112,-571.5 106,-571.5 106,-571.5 12,-571.5 12,-571.5 6,-571.5 0,-565.5 0,-559.5 0,-559.5 0,-468.5 0,-468.5 0,-462.5 6,-456.5 12,-456.5"/>
<text text-anchor="middle" x="59" y="-556.3" font-family="Times New Roman,serif" font-size="14.00">idx: 02845D08</text>
<polyline fill="none" stroke="black" points="0,-548.5 118,-548.5"/>
<text text-anchor="middle" x="59" y="-533.3" font-family="Times New Roman,serif" font-size="14.00">value: judo belt</text>
<polyline fill="none" stroke="black" points="0,-525.5 118,-525.5"/>
<text text-anchor="middle" x="59" y="-510.3" font-family="Times New Roman,serif" font-size="14.00">left: 00000000</text>
<polyline fill="none" stroke="black" points="0,-502.5 118,-502.5"/>
<text text-anchor="middle" x="59" y="-487.3" font-family="Times New Roman,serif" font-size="14.00">right: 00000000</text>
<polyline fill="none" stroke="black" points="0,-479.5 118,-479.5"/>
<text text-anchor="middle" x="59" y="-464.3" font-family="Times New Roman,serif" font-size="14.00">parent: 02845CD8</text>
</g>
<!-- node1&#45;&gt;node2 -->
<g id="edge2" class="edge">
<title>node1&#45;&gt;node2</title>
<path fill="none" stroke="#00bfff" d="M142.34,-608.29C133.92,-598.86 125.13,-589.03 116.55,-579.43"/>
<polygon fill="#00bfff" stroke="#00bfff" points="119,-576.91 109.73,-571.79 113.78,-581.58 119,-576.91"/>
</g>
<!-- node3 -->
<g id="node4" class="node">
<title>node3</title>
<path fill="#ccff99" stroke="black" d="M148,-456.5C148,-456.5 242,-456.5 242,-456.5 248,-456.5 254,-462.5 254,-468.5 254,-468.5 254,-559.5 254,-559.5 254,-565.5 248,-571.5 242,-571.5 242,-571.5 148,-571.5 148,-571.5 142,-571.5 136,-565.5 136,-559.5 136,-559.5 136,-468.5 136,-468.5 136,-462.5 142,-456.5 148,-456.5"/>
<text text-anchor="middle" x="195" y="-556.3" font-family="Times New Roman,serif" font-size="14.00">idx: 02845BB8</text>
<polyline fill="none" stroke="black" points="136,-548.5 254,-548.5"/>
<text text-anchor="middle" x="195" y="-533.3" font-family="Times New Roman,serif" font-size="14.00">value: sun</text>
<polyline fill="none" stroke="black" points="136,-525.5 254,-525.5"/>
<text text-anchor="middle" x="195" y="-510.3" font-family="Times New Roman,serif" font-size="14.00">left: 00000000</text>
<polyline fill="none" stroke="black" points="136,-502.5 254,-502.5"/>
<text text-anchor="middle" x="195" y="-487.3" font-family="Times New Roman,serif" font-size="14.00">right: 00000000</text>
<polyline fill="none" stroke="black" points="136,-479.5 254,-479.5"/>
<text text-anchor="middle" x="195" y="-464.3" font-family="Times New Roman,serif" font-size="14.00">parent: 02845CD8</text>
</g>
<!-- node1&#45;&gt;node3 -->
<g id="edge3" class="edge">
<title>node1&#45;&gt;node3</title>
<path fill="none" stroke="#ccff99" d="M193.76,-608.29C193.87,-599.7 193.99,-590.78 194.11,-582"/>
<polygon fill="#ccff99" stroke="#ccff99" points="197.61,-581.83 194.24,-571.79 190.61,-581.74 197.61,-581.83"/>
</g>
<!-- node5 -->
<g id="node6" class="node">
<title>node5</title>
<path fill="#00bfff" stroke="black" d="M288.5,-456.5C288.5,-456.5 379.5,-456.5 379.5,-456.5 385.5,-456.5 391.5,-462.5 391.5,-468.5 391.5,-468.5 391.5,-559.5 391.5,-559.5 391.5,-565.5 385.5,-571.5 379.5,-571.5 379.5,-571.5 288.5,-571.5 288.5,-571.5 282.5,-571.5 276.5,-565.5 276.5,-559.5 276.5,-559.5 276.5,-468.5 276.5,-468.5 276.5,-462.5 282.5,-456.5 288.5,-456.5"/>
<text text-anchor="middle" x="334" y="-556.3" font-family="Times New Roman,serif" font-size="14.00">idx: 02845C60</text>
<polyline fill="none" stroke="black" points="276.5,-548.5 391.5,-548.5"/>
<text text-anchor="middle" x="334" y="-533.3" font-family="Times New Roman,serif" font-size="14.00">value: grey</text>
<polyline fill="none" stroke="black" points="276.5,-525.5 391.5,-525.5"/>
<text text-anchor="middle" x="334" y="-510.3" font-family="Times New Roman,serif" font-size="14.00">left: 02845D20</text>
<polyline fill="none" stroke="black" points="276.5,-502.5 391.5,-502.5"/>
<text text-anchor="middle" x="334" y="-487.3" font-family="Times New Roman,serif" font-size="14.00">right: 02845BD0</text>
<polyline fill="none" stroke="black" points="276.5,-479.5 391.5,-479.5"/>
<text text-anchor="middle" x="334" y="-464.3" font-family="Times New Roman,serif" font-size="14.00">parent: 02845C48</text>
</g>
<!-- node4&#45;&gt;node5 -->
<g id="edge5" class="edge">
<title>node4&#45;&gt;node5</title>
<path fill="none" stroke="#00bfff" d="M335.24,-608.29C335.13,-599.7 335.01,-590.78 334.89,-582"/>
<polygon fill="#00bfff" stroke="#00bfff" points="338.39,-581.74 334.76,-571.79 331.39,-581.83 338.39,-581.74"/>
</g>
<!-- node10 -->
<g id="node11" class="node">
<title>node10</title>
<path fill="#ccff99" stroke="black" d="M488.5,-456.5C488.5,-456.5 579.5,-456.5 579.5,-456.5 585.5,-456.5 591.5,-462.5 591.5,-468.5 591.5,-468.5 591.5,-559.5 591.5,-559.5 591.5,-565.5 585.5,-571.5 579.5,-571.5 579.5,-571.5 488.5,-571.5 488.5,-571.5 482.5,-571.5 476.5,-565.5 476.5,-559.5 476.5,-559.5 476.5,-468.5 476.5,-468.5 476.5,-462.5 482.5,-456.5 488.5,-456.5"/>
<text text-anchor="middle" x="534" y="-556.3" font-family="Times New Roman,serif" font-size="14.00">idx: 02845BE8</text>
<polyline fill="none" stroke="black" points="476.5,-548.5 591.5,-548.5"/>
<text text-anchor="middle" x="534" y="-533.3" font-family="Times New Roman,serif" font-size="14.00">value: big</text>
<polyline fill="none" stroke="black" points="476.5,-525.5 591.5,-525.5"/>
<text text-anchor="middle" x="534" y="-510.3" font-family="Times New Roman,serif" font-size="14.00">left: 02845C00</text>
<polyline fill="none" stroke="black" points="476.5,-502.5 591.5,-502.5"/>
<text text-anchor="middle" x="534" y="-487.3" font-family="Times New Roman,serif" font-size="14.00">right: 0109C248</text>
<polyline fill="none" stroke="black" points="476.5,-479.5 591.5,-479.5"/>
<text text-anchor="middle" x="534" y="-464.3" font-family="Times New Roman,serif" font-size="14.00">parent: 02845C48</text>
</g>
<!-- node4&#45;&gt;node10 -->
<g id="edge10" class="edge">
<title>node4&#45;&gt;node10</title>
<path fill="none" stroke="#ccff99" d="M395.14,-620.2C418.07,-602.82 444.44,-582.85 467.99,-565.01"/>
<polygon fill="#ccff99" stroke="#ccff99" points="470.33,-567.63 476.19,-558.8 466.1,-562.05 470.33,-567.63"/>
</g>
<!-- node6 -->
<g id="node7" class="node">
<title>node6</title>
<path fill="#00bfff" stroke="black" d="M155.5,-304.5C155.5,-304.5 246.5,-304.5 246.5,-304.5 252.5,-304.5 258.5,-310.5 258.5,-316.5 258.5,-316.5 258.5,-407.5 258.5,-407.5 258.5,-413.5 252.5,-419.5 246.5,-419.5 246.5,-419.5 155.5,-419.5 155.5,-419.5 149.5,-419.5 143.5,-413.5 143.5,-407.5 143.5,-407.5 143.5,-316.5 143.5,-316.5 143.5,-310.5 149.5,-304.5 155.5,-304.5"/>
<text text-anchor="middle" x="201" y="-404.3" font-family="Times New Roman,serif" font-size="14.00">idx: 02845D20</text>
<polyline fill="none" stroke="black" points="143.5,-396.5 258.5,-396.5"/>
<text text-anchor="middle" x="201" y="-381.3" font-family="Times New Roman,serif" font-size="14.00">value: mouse</text>
<polyline fill="none" stroke="black" points="143.5,-373.5 258.5,-373.5"/>
<text text-anchor="middle" x="201" y="-358.3" font-family="Times New Roman,serif" font-size="14.00">left: 00000000</text>
<polyline fill="none" stroke="black" points="143.5,-350.5 258.5,-350.5"/>
<text text-anchor="middle" x="201" y="-335.3" font-family="Times New Roman,serif" font-size="14.00">right: 00000000</text>
<polyline fill="none" stroke="black" points="143.5,-327.5 258.5,-327.5"/>
<text text-anchor="middle" x="201" y="-312.3" font-family="Times New Roman,serif" font-size="14.00">parent: 02845C60</text>
</g>
<!-- node5&#45;&gt;node6 -->
<g id="edge6" class="edge">
<title>node5&#45;&gt;node6</title>
<path fill="none" stroke="#00bfff" d="M283.72,-456.29C275.36,-446.86 266.64,-437.03 258.12,-427.43"/>
<polygon fill="#00bfff" stroke="#00bfff" points="260.61,-424.95 251.35,-419.79 255.37,-429.59 260.61,-424.95"/>
</g>
<!-- node7 -->
<g id="node8" class="node">
<title>node7</title>
<path fill="#ccff99" stroke="black" d="M288.5,-304.5C288.5,-304.5 379.5,-304.5 379.5,-304.5 385.5,-304.5 391.5,-310.5 391.5,-316.5 391.5,-316.5 391.5,-407.5 391.5,-407.5 391.5,-413.5 385.5,-419.5 379.5,-419.5 379.5,-419.5 288.5,-419.5 288.5,-419.5 282.5,-419.5 276.5,-413.5 276.5,-407.5 276.5,-407.5 276.5,-316.5 276.5,-316.5 276.5,-310.5 282.5,-304.5 288.5,-304.5"/>
<text text-anchor="middle" x="334" y="-404.3" font-family="Times New Roman,serif" font-size="14.00">idx: 02845BD0</text>
<polyline fill="none" stroke="black" points="276.5,-396.5 391.5,-396.5"/>
<text text-anchor="middle" x="334" y="-381.3" font-family="Times New Roman,serif" font-size="14.00">value: tall</text>
<polyline fill="none" stroke="black" points="276.5,-373.5 391.5,-373.5"/>
<text text-anchor="middle" x="334" y="-358.3" font-family="Times New Roman,serif" font-size="14.00">left: 02845D38</text>
<polyline fill="none" stroke="black" points="276.5,-350.5 391.5,-350.5"/>
<text text-anchor="middle" x="334" y="-335.3" font-family="Times New Roman,serif" font-size="14.00">right: 02845D50</text>
<polyline fill="none" stroke="black" points="276.5,-327.5 391.5,-327.5"/>
<text text-anchor="middle" x="334" y="-312.3" font-family="Times New Roman,serif" font-size="14.00">parent: 02845C60</text>
</g>
<!-- node5&#45;&gt;node7 -->
<g id="edge7" class="edge">
<title>node5&#45;&gt;node7</title>
<path fill="none" stroke="#ccff99" d="M334,-456.29C334,-447.7 334,-438.78 334,-430"/>
<polygon fill="#ccff99" stroke="#ccff99" points="337.5,-429.79 334,-419.79 330.5,-429.79 337.5,-429.79"/>
</g>
<!-- node8 -->
<g id="node9" class="node">
<title>node8</title>
<path fill="#00bfff" stroke="black" d="M152.5,-152.5C152.5,-152.5 245.5,-152.5 245.5,-152.5 251.5,-152.5 257.5,-158.5 257.5,-164.5 257.5,-164.5 257.5,-255.5 257.5,-255.5 257.5,-261.5 251.5,-267.5 245.5,-267.5 245.5,-267.5 152.5,-267.5 152.5,-267.5 146.5,-267.5 140.5,-261.5 140.5,-255.5 140.5,-255.5 140.5,-164.5 140.5,-164.5 140.5,-158.5 146.5,-152.5 152.5,-152.5"/>
<text text-anchor="middle" x="199" y="-252.3" font-family="Times New Roman,serif" font-size="14.00">idx: 02845D38</text>
<polyline fill="none" stroke="black" points="140.5,-244.5 257.5,-244.5"/>
<text text-anchor="middle" x="199" y="-229.3" font-family="Times New Roman,serif" font-size="14.00">value: giraffe</text>
<polyline fill="none" stroke="black" points="140.5,-221.5 257.5,-221.5"/>
<text text-anchor="middle" x="199" y="-206.3" font-family="Times New Roman,serif" font-size="14.00">left: 00000000</text>
<polyline fill="none" stroke="black" points="140.5,-198.5 257.5,-198.5"/>
<text text-anchor="middle" x="199" y="-183.3" font-family="Times New Roman,serif" font-size="14.00">right: 00000000</text>
<polyline fill="none" stroke="black" points="140.5,-175.5 257.5,-175.5"/>
<text text-anchor="middle" x="199" y="-160.3" font-family="Times New Roman,serif" font-size="14.00">parent: 02845BD0</text>
</g>
<!-- node7&#45;&gt;node8 -->
<g id="edge8" class="edge">
<title>node7&#45;&gt;node8</title>
<path fill="none" stroke="#00bfff" d="M282.96,-304.29C274.48,-294.86 265.62,-285.03 256.98,-275.43"/>
<polygon fill="#00bfff" stroke="#00bfff" points="259.4,-272.88 250.11,-267.79 254.2,-277.56 259.4,-272.88"/>
</g>
<!-- node9 -->
<g id="node10" class="node">
<title>node9</title>
<path fill="#ccff99" stroke="black" d="M287.5,-152.5C287.5,-152.5 380.5,-152.5 380.5,-152.5 386.5,-152.5 392.5,-158.5 392.5,-164.5 392.5,-164.5 392.5,-255.5 392.5,-255.5 392.5,-261.5 386.5,-267.5 380.5,-267.5 380.5,-267.5 287.5,-267.5 287.5,-267.5 281.5,-267.5 275.5,-261.5 275.5,-255.5 275.5,-255.5 275.5,-164.5 275.5,-164.5 275.5,-158.5 281.5,-152.5 287.5,-152.5"/>
<text text-anchor="middle" x="334" y="-252.3" font-family="Times New Roman,serif" font-size="14.00">idx: 02845D50</text>
<polyline fill="none" stroke="black" points="275.5,-244.5 392.5,-244.5"/>
<text text-anchor="middle" x="334" y="-229.3" font-family="Times New Roman,serif" font-size="14.00">value: frog</text>
<polyline fill="none" stroke="black" points="275.5,-221.5 392.5,-221.5"/>
<text text-anchor="middle" x="334" y="-206.3" font-family="Times New Roman,serif" font-size="14.00">left: 00000000</text>
<polyline fill="none" stroke="black" points="275.5,-198.5 392.5,-198.5"/>
<text text-anchor="middle" x="334" y="-183.3" font-family="Times New Roman,serif" font-size="14.00">right: 00000000</text>
<polyline fill="none" stroke="black" points="275.5,-175.5 392.5,-175.5"/>
<text text-anchor="middle" x="334" y="-160.3" font-family="Times New Roman,serif" font-size="14.00">parent: 02845BD0</text>
</g>
<!-- node7&#45;&gt;node9 -->
<g id="edge9" class="edge">
<title>node7&#45;&gt;node9</title>
<path fill="none" stroke="#ccff99" d="M334,-304.29C334,-295.7 334,-286.78 334,-278"/>
<polygon fill="#ccff99" stroke="#ccff99" points="337.5,-277.79 334,-267.79 330.5,-277.79 337.5,-277.79"/>
</g>
<!-- node11 -->
<g id="node12" class="node">
<title>node11</title>
<path fill="#00bfff" stroke="black" d="M488,-304.5C488,-304.5 580,-304.5 580,-304.5 586,-304.5 592,-310.5 592,-316.5 592,-316.5 592,-407.5 592,-407.5 592,-413.5 586,-419.5 580,-419.5 580,-419.5 488,-419.5 488,-419.5 482,-419.5 476,-413.5 476,-407.5 476,-407.5 476,-316.5 476,-316.5 476,-310.5 482,-304.5 488,-304.5"/>
<text text-anchor="middle" x="534" y="-404.3" font-family="Times New Roman,serif" font-size="14.00">idx: 02845C00</text>
<polyline fill="none" stroke="black" points="476,-396.5 592,-396.5"/>
<text text-anchor="middle" x="534" y="-381.3" font-family="Times New Roman,serif" font-size="14.00">value: fly</text>
<polyline fill="none" stroke="black" points="476,-373.5 592,-373.5"/>
<text text-anchor="middle" x="534" y="-358.3" font-family="Times New Roman,serif" font-size="14.00">left: 02845D68</text>
<polyline fill="none" stroke="black" points="476,-350.5 592,-350.5"/>
<text text-anchor="middle" x="534" y="-335.3" font-family="Times New Roman,serif" font-size="14.00">right: 0109C170</text>
<polyline fill="none" stroke="black" points="476,-327.5 592,-327.5"/>
<text text-anchor="middle" x="534" y="-312.3" font-family="Times New Roman,serif" font-size="14.00">parent: 02845BE8</text>
</g>
<!-- node10&#45;&gt;node11 -->
<g id="edge11" class="edge">
<title>node10&#45;&gt;node11</title>
<path fill="none" stroke="#00bfff" d="M534,-456.29C534,-447.7 534,-438.78 534,-430"/>
<polygon fill="#00bfff" stroke="#00bfff" points="537.5,-429.79 534,-419.79 530.5,-429.79 537.5,-429.79"/>
</g>
<!-- node16 -->
<g id="node17" class="node">
<title>node16</title>
<path fill="#ccff99" stroke="black" d="M688,-304.5C688,-304.5 780,-304.5 780,-304.5 786,-304.5 792,-310.5 792,-316.5 792,-316.5 792,-407.5 792,-407.5 792,-413.5 786,-419.5 780,-419.5 780,-419.5 688,-419.5 688,-419.5 682,-419.5 676,-413.5 676,-407.5 676,-407.5 676,-316.5 676,-316.5 676,-310.5 682,-304.5 688,-304.5"/>
<text text-anchor="middle" x="734" y="-404.3" font-family="Times New Roman,serif" font-size="14.00">idx: 0109C248</text>
<polyline fill="none" stroke="black" points="676,-396.5 792,-396.5"/>
<text text-anchor="middle" x="734" y="-381.3" font-family="Times New Roman,serif" font-size="14.00">value: thin</text>
<polyline fill="none" stroke="black" points="676,-373.5 792,-373.5"/>
<text text-anchor="middle" x="734" y="-358.3" font-family="Times New Roman,serif" font-size="14.00">left: 0109C278</text>
<polyline fill="none" stroke="black" points="676,-350.5 792,-350.5"/>
<text text-anchor="middle" x="734" y="-335.3" font-family="Times New Roman,serif" font-size="14.00">right: 0109C1A0</text>
<polyline fill="none" stroke="black" points="676,-327.5 792,-327.5"/>
<text text-anchor="middle" x="734" y="-312.3" font-family="Times New Roman,serif" font-size="14.00">parent: 02845BE8</text>
</g>
<!-- node10&#45;&gt;node16 -->
<g id="edge16" class="edge">
<title>node10&#45;&gt;node16</title>
<path fill="none" stroke="#ccff99" d="M591.58,-469.82C615.32,-452.01 642.98,-431.26 667.57,-412.82"/>
<polygon fill="#ccff99" stroke="#ccff99" points="669.89,-415.46 675.79,-406.66 665.69,-409.86 669.89,-415.46"/>
</g>
<!-- node12 -->
<g id="node13" class="node">
<title>node12</title>
<path fill="#00bfff" stroke="black" d="M422.5,-152.5C422.5,-152.5 513.5,-152.5 513.5,-152.5 519.5,-152.5 525.5,-158.5 525.5,-164.5 525.5,-164.5 525.5,-255.5 525.5,-255.5 525.5,-261.5 519.5,-267.5 513.5,-267.5 513.5,-267.5 422.5,-267.5 422.5,-267.5 416.5,-267.5 410.5,-261.5 410.5,-255.5 410.5,-255.5 410.5,-164.5 410.5,-164.5 410.5,-158.5 416.5,-152.5 422.5,-152.5"/>
<text text-anchor="middle" x="468" y="-252.3" font-family="Times New Roman,serif" font-size="14.00">idx: 02845D68</text>
<polyline fill="none" stroke="black" points="410.5,-244.5 525.5,-244.5"/>
<text text-anchor="middle" x="468" y="-229.3" font-family="Times New Roman,serif" font-size="14.00">value: rocket</text>
<polyline fill="none" stroke="black" points="410.5,-221.5 525.5,-221.5"/>
<text text-anchor="middle" x="468" y="-206.3" font-family="Times New Roman,serif" font-size="14.00">left: 00000000</text>
<polyline fill="none" stroke="black" points="410.5,-198.5 525.5,-198.5"/>
<text text-anchor="middle" x="468" y="-183.3" font-family="Times New Roman,serif" font-size="14.00">right: 00000000</text>
<polyline fill="none" stroke="black" points="410.5,-175.5 525.5,-175.5"/>
<text text-anchor="middle" x="468" y="-160.3" font-family="Times New Roman,serif" font-size="14.00">parent: 02845C00</text>
</g>
<!-- node11&#45;&gt;node12 -->
<g id="edge12" class="edge">
<title>node11&#45;&gt;node12</title>
<path fill="none" stroke="#00bfff" d="M509.05,-304.29C505.15,-295.42 501.09,-286.19 497.1,-277.14"/>
<polygon fill="#00bfff" stroke="#00bfff" points="500.22,-275.53 492.99,-267.79 493.81,-278.35 500.22,-275.53"/>
</g>
<!-- node13 -->
<g id="node14" class="node">
<title>node13</title>
<path fill="#ccff99" stroke="black" d="M555.5,-152.5C555.5,-152.5 646.5,-152.5 646.5,-152.5 652.5,-152.5 658.5,-158.5 658.5,-164.5 658.5,-164.5 658.5,-255.5 658.5,-255.5 658.5,-261.5 652.5,-267.5 646.5,-267.5 646.5,-267.5 555.5,-267.5 555.5,-267.5 549.5,-267.5 543.5,-261.5 543.5,-255.5 543.5,-255.5 543.5,-164.5 543.5,-164.5 543.5,-158.5 549.5,-152.5 555.5,-152.5"/>
<text text-anchor="middle" x="601" y="-252.3" font-family="Times New Roman,serif" font-size="14.00">idx: 0109C170</text>
<polyline fill="none" stroke="black" points="543.5,-244.5 658.5,-244.5"/>
<text text-anchor="middle" x="601" y="-229.3" font-family="Times New Roman,serif" font-size="14.00">value: drive</text>
<polyline fill="none" stroke="black" points="543.5,-221.5 658.5,-221.5"/>
<text text-anchor="middle" x="601" y="-206.3" font-family="Times New Roman,serif" font-size="14.00">left: 0109C200</text>
<polyline fill="none" stroke="black" points="543.5,-198.5 658.5,-198.5"/>
<text text-anchor="middle" x="601" y="-183.3" font-family="Times New Roman,serif" font-size="14.00">right: 0109C0B0</text>
<polyline fill="none" stroke="black" points="543.5,-175.5 658.5,-175.5"/>
<text text-anchor="middle" x="601" y="-160.3" font-family="Times New Roman,serif" font-size="14.00">parent: 02845C00</text>
</g>
<!-- node11&#45;&gt;node13 -->
<g id="edge13" class="edge">
<title>node11&#45;&gt;node13</title>
<path fill="none" stroke="#ccff99" d="M559.33,-304.29C563.29,-295.42 567.41,-286.19 571.46,-277.14"/>
<polygon fill="#ccff99" stroke="#ccff99" points="574.75,-278.35 575.63,-267.79 568.36,-275.49 574.75,-278.35"/>
</g>
<!-- node14 -->
<g id="node15" class="node">
<title>node14</title>
<path fill="#00bfff" stroke="black" d="M488.5,-0.5C488.5,-0.5 579.5,-0.5 579.5,-0.5 585.5,-0.5 591.5,-6.5 591.5,-12.5 591.5,-12.5 591.5,-103.5 591.5,-103.5 591.5,-109.5 585.5,-115.5 579.5,-115.5 579.5,-115.5 488.5,-115.5 488.5,-115.5 482.5,-115.5 476.5,-109.5 476.5,-103.5 476.5,-103.5 476.5,-12.5 476.5,-12.5 476.5,-6.5 482.5,-0.5 488.5,-0.5"/>
<text text-anchor="middle" x="534" y="-100.3" font-family="Times New Roman,serif" font-size="14.00">idx: 0109C200</text>
<polyline fill="none" stroke="black" points="476.5,-92.5 591.5,-92.5"/>
<text text-anchor="middle" x="534" y="-77.3" font-family="Times New Roman,serif" font-size="14.00">value: car</text>
<polyline fill="none" stroke="black" points="476.5,-69.5 591.5,-69.5"/>
<text text-anchor="middle" x="534" y="-54.3" font-family="Times New Roman,serif" font-size="14.00">left: 00000000</text>
<polyline fill="none" stroke="black" points="476.5,-46.5 591.5,-46.5"/>
<text text-anchor="middle" x="534" y="-31.3" font-family="Times New Roman,serif" font-size="14.00">right: 00000000</text>
<polyline fill="none" stroke="black" points="476.5,-23.5 591.5,-23.5"/>
<text text-anchor="middle" x="534" y="-8.3" font-family="Times New Roman,serif" font-size="14.00">parent: 0109C170</text>
</g>
<!-- node13&#45;&gt;node14 -->
<g id="edge14" class="edge">
<title>node13&#45;&gt;node14</title>
<path fill="none" stroke="#00bfff" d="M575.67,-152.29C571.71,-143.42 567.59,-134.19 563.54,-125.14"/>
<polygon fill="#00bfff" stroke="#00bfff" points="566.64,-123.49 559.37,-115.79 560.25,-126.35 566.64,-123.49"/>
</g>
<!-- node15 -->
<g id="node16" class="node">
<title>node15</title>
<path fill="#ccff99" stroke="black" d="M621.5,-0.5C621.5,-0.5 712.5,-0.5 712.5,-0.5 718.5,-0.5 724.5,-6.5 724.5,-12.5 724.5,-12.5 724.5,-103.5 724.5,-103.5 724.5,-109.5 718.5,-115.5 712.5,-115.5 712.5,-115.5 621.5,-115.5 621.5,-115.5 615.5,-115.5 609.5,-109.5 609.5,-103.5 609.5,-103.5 609.5,-12.5 609.5,-12.5 609.5,-6.5 615.5,-0.5 621.5,-0.5"/>
<text text-anchor="middle" x="667" y="-100.3" font-family="Times New Roman,serif" font-size="14.00">idx: 0109C0B0</text>
<polyline fill="none" stroke="black" points="609.5,-92.5 724.5,-92.5"/>
<text text-anchor="middle" x="667" y="-77.3" font-family="Times New Roman,serif" font-size="14.00">value: house</text>
<polyline fill="none" stroke="black" points="609.5,-69.5 724.5,-69.5"/>
<text text-anchor="middle" x="667" y="-54.3" font-family="Times New Roman,serif" font-size="14.00">left: 00000000</text>
<polyline fill="none" stroke="black" points="609.5,-46.5 724.5,-46.5"/>
<text text-anchor="middle" x="667" y="-31.3" font-family="Times New Roman,serif" font-size="14.00">right: 00000000</text>
<polyline fill="none" stroke="black" points="609.5,-23.5 724.5,-23.5"/>
<text text-anchor="middle" x="667" y="-8.3" font-family="Times New Roman,serif" font-size="14.00">parent: 0109C170</text>
</g>
<!-- node13&#45;&gt;node15 -->
<g id="edge15" class="edge">
<title>node13&#45;&gt;node15</title>
<path fill="none" stroke="#ccff99" d="M625.95,-152.29C629.85,-143.42 633.91,-134.19 637.9,-125.14"/>
<polygon fill="#ccff99" stroke="#ccff99" points="641.19,-126.35 642.01,-115.79 634.78,-123.53 641.19,-126.35"/>
</g>
<!-- node17 -->
<g id="node18" class="node">
<title>node17</title>
<path fill="#00bfff" stroke="black" d="M688.5,-152.5C688.5,-152.5 779.5,-152.5 779.5,-152.5 785.5,-152.5 791.5,-158.5 791.5,-164.5 791.5,-164.5 791.5,-255.5 791.5,-255.5 791.5,-261.5 785.5,-267.5 779.5,-267.5 779.5,-267.5 688.5,-267.5 688.5,-267.5 682.5,-267.5 676.5,-261.5 676.5,-255.5 676.5,-255.5 676.5,-164.5 676.5,-164.5 676.5,-158.5 682.5,-152.5 688.5,-152.5"/>
<text text-anchor="middle" x="734" y="-252.3" font-family="Times New Roman,serif" font-size="14.00">idx: 0109C278</text>
<polyline fill="none" stroke="black" points="676.5,-244.5 791.5,-244.5"/>
<text text-anchor="middle" x="734" y="-229.3" font-family="Times New Roman,serif" font-size="14.00">value: paper</text>
<polyline fill="none" stroke="black" points="676.5,-221.5 791.5,-221.5"/>
<text text-anchor="middle" x="734" y="-206.3" font-family="Times New Roman,serif" font-size="14.00">left: 00000000</text>
<polyline fill="none" stroke="black" points="676.5,-198.5 791.5,-198.5"/>
<text text-anchor="middle" x="734" y="-183.3" font-family="Times New Roman,serif" font-size="14.00">right: 00000000</text>
<polyline fill="none" stroke="black" points="676.5,-175.5 791.5,-175.5"/>
<text text-anchor="middle" x="734" y="-160.3" font-family="Times New Roman,serif" font-size="14.00">parent: 0109C248</text>
</g>
<!-- node16&#45;&gt;node17 -->
<g id="edge17" class="edge">
<title>node16&#45;&gt;node17</title>
<path fill="none" stroke="#00bfff" d="M734,-304.29C734,-295.7 734,-286.78 734,-278"/>
<polygon fill="#00bfff" stroke="#00bfff" points="737.5,-277.79 734,-267.79 730.5,-277.79 737.5,-277.79"/>
</g>
<!-- node18 -->
<g id="node19" class="node">
<title>node18</title>
<path fill="#ccff99" stroke="black" d="M821.5,-152.5C821.5,-152.5 912.5,-152.5 912.5,-152.5 918.5,-152.5 924.5,-158.5 924.5,-164.5 924.5,-164.5 924.5,-255.5 924.5,-255.5 924.5,-261.5 918.5,-267.5 912.5,-267.5 912.5,-267.5 821.5,-267.5 821.5,-267.5 815.5,-267.5 809.5,-261.5 809.5,-255.5 809.5,-255.5 809.5,-164.5 809.5,-164.5 809.5,-158.5 815.5,-152.5 821.5,-152.5"/>
<text text-anchor="middle" x="867" y="-252.3" font-family="Times New Roman,serif" font-size="14.00">idx: 0109C1A0</text>
<polyline fill="none" stroke="black" points="809.5,-244.5 924.5,-244.5"/>
<text text-anchor="middle" x="867" y="-229.3" font-family="Times New Roman,serif" font-size="14.00">value: grass</text>
<polyline fill="none" stroke="black" points="809.5,-221.5 924.5,-221.5"/>
<text text-anchor="middle" x="867" y="-206.3" font-family="Times New Roman,serif" font-size="14.00">left: 00000000</text>
<polyline fill="none" stroke="black" points="809.5,-198.5 924.5,-198.5"/>
<text text-anchor="middle" x="867" y="-183.3" font-family="Times New Roman,serif" font-size="14.00">right: 00000000</text>
<polyline fill="none" stroke="black" points="809.5,-175.5 924.5,-175.5"/>
<text text-anchor="middle" x="867" y="-160.3" font-family="Times New Roman,serif" font-size="14.00">parent: 0109C248</text>
</g>
<!-- node16&#45;&gt;node18 -->
<g id="edge18" class="edge">
<title>node16&#45;&gt;node18</title>
<path fill="none" stroke="#ccff99" d="M784.28,-304.29C792.64,-294.86 801.36,-285.03 809.88,-275.43"/>
<polygon fill="#ccff99" stroke="#ccff99" points="812.63,-277.59 816.65,-267.79 807.39,-272.95 812.63,-277.59"/>
</g>
</g>
</svg>
