<?xml version="1.0" encoding="UTF-8" standalone="no"?>
<!DOCTYPE svg PUBLIC "-//W3C//DTD SVG 1.1//EN"
 "http://www.w3.org/Graphics/SVG/1.1/DTD/svg11.dtd">
<!-- Generated by graphviz version 6.0.2 (20221011.1828)
 -->
<!-- Title: List Pages: 1 -->
<svg width="515pt" height="603pt"
 viewBox="0.00 0.00 515.00 603.00" xmlns="http://www.w3.org/2000/svg" xmlns:xlink="http://www.w3.org/1999/xlink">
<g id="graph0" class="graph" transform="scale(1 1) rotate(0) translate(4 599)">
<title>List</title>
<polygon fill="#696969" stroke="none" points="-4,4 -4,-599 511,-599 511,4 -4,4"/>
<text text-anchor="middle" x="253.5" y="-7.8" font-family="Times New Roman,serif" font-size="14.00">tree_dump from function main, Tree/main.cpp:10</text>
<!-- node0 -->
<g id="node1" class="node">
<title>node0</title>
<path fill="#ff0000" stroke="black" d="M209,-479.5C209,-479.5 297,-479.5 297,-479.5 303,-479.5 309,-485.5 309,-491.5 309,-491.5 309,-582.5 309,-582.5 309,-588.5 303,-594.5 297,-594.5 297,-594.5 209,-594.5 209,-594.5 203,-594.5 197,-588.5 197,-582.5 197,-582.5 197,-491.5 197,-491.5 197,-485.5 203,-479.5 209,-479.5"/>
<text text-anchor="middle" x="253" y="-579.3" font-family="Times New Roman,serif" font-size="14.00">idx: 011ED080</text>
<polyline fill="none" stroke="black" points="197,-571.5 309,-571.5"/>
<text text-anchor="middle" x="253" y="-556.3" font-family="Times New Roman,serif" font-size="14.00">value: yellow</text>
<polyline fill="none" stroke="black" points="197,-548.5 309,-548.5"/>
<text text-anchor="middle" x="253" y="-533.3" font-family="Times New Roman,serif" font-size="14.00">left: 011ED050</text>
<polyline fill="none" stroke="black" points="197,-525.5 309,-525.5"/>
<text text-anchor="middle" x="253" y="-510.3" font-family="Times New Roman,serif" font-size="14.00">right: 011ECFD8</text>
<polyline fill="none" stroke="black" points="197,-502.5 309,-502.5"/>
<text text-anchor="middle" x="253" y="-487.3" font-family="Times New Roman,serif" font-size="14.00">parent: 00000000</text>
</g>
<!-- node1 -->
<g id="node2" class="node">
<title>node1</title>
<path fill="#00bfff" stroke="black" d="M129,-327.5C129,-327.5 237,-327.5 237,-327.5 243,-327.5 249,-333.5 249,-339.5 249,-339.5 249,-430.5 249,-430.5 249,-436.5 243,-442.5 237,-442.5 237,-442.5 129,-442.5 129,-442.5 123,-442.5 117,-436.5 117,-430.5 117,-430.5 117,-339.5 117,-339.5 117,-333.5 123,-327.5 129,-327.5"/>
<text text-anchor="middle" x="183" y="-427.3" font-family="Times New Roman,serif" font-size="14.00">idx: 011ED050</text>
<polyline fill="none" stroke="black" points="117,-419.5 249,-419.5"/>
<text text-anchor="middle" x="183" y="-404.3" font-family="Times New Roman,serif" font-size="14.00">value: worn on a belt</text>
<polyline fill="none" stroke="black" points="117,-396.5 249,-396.5"/>
<text text-anchor="middle" x="183" y="-381.3" font-family="Times New Roman,serif" font-size="14.00">left: 011ECFF0</text>
<polyline fill="none" stroke="black" points="117,-373.5 249,-373.5"/>
<text text-anchor="middle" x="183" y="-358.3" font-family="Times New Roman,serif" font-size="14.00">right: 011ED098</text>
<polyline fill="none" stroke="black" points="117,-350.5 249,-350.5"/>
<text text-anchor="middle" x="183" y="-335.3" font-family="Times New Roman,serif" font-size="14.00">parent: 00000000</text>
</g>
<!-- node0&#45;&gt;node1 -->
<g id="edge1" class="edge">
<title>node0&#45;&gt;node1</title>
<path fill="none" stroke="#00bfff" d="M226.54,-479.29C222.35,-470.33 218,-461 213.73,-451.85"/>
<polygon fill="#00bfff" stroke="#00bfff" points="216.9,-450.37 209.5,-442.79 210.56,-453.33 216.9,-450.37"/>
</g>
<!-- node4 -->
<g id="node5" class="node">
<title>node4</title>
<path fill="#ccff99" stroke="black" d="M279,-327.5C279,-327.5 367,-327.5 367,-327.5 373,-327.5 379,-333.5 379,-339.5 379,-339.5 379,-430.5 379,-430.5 379,-436.5 373,-442.5 367,-442.5 367,-442.5 279,-442.5 279,-442.5 273,-442.5 267,-436.5 267,-430.5 267,-430.5 267,-339.5 267,-339.5 267,-333.5 273,-327.5 279,-327.5"/>
<text text-anchor="middle" x="323" y="-427.3" font-family="Times New Roman,serif" font-size="14.00">idx: 011ECFD8</text>
<polyline fill="none" stroke="black" points="267,-419.5 379,-419.5"/>
<text text-anchor="middle" x="323" y="-404.3" font-family="Times New Roman,serif" font-size="14.00">value: life</text>
<polyline fill="none" stroke="black" points="267,-396.5 379,-396.5"/>
<text text-anchor="middle" x="323" y="-381.3" font-family="Times New Roman,serif" font-size="14.00">left: 011ECF90</text>
<polyline fill="none" stroke="black" points="267,-373.5 379,-373.5"/>
<text text-anchor="middle" x="323" y="-358.3" font-family="Times New Roman,serif" font-size="14.00">right: 011ED0B0</text>
<polyline fill="none" stroke="black" points="267,-350.5 379,-350.5"/>
<text text-anchor="middle" x="323" y="-335.3" font-family="Times New Roman,serif" font-size="14.00">parent: 00000000</text>
</g>
<!-- node0&#45;&gt;node4 -->
<g id="edge4" class="edge">
<title>node0&#45;&gt;node4</title>
<path fill="none" stroke="#ccff99" d="M279.46,-479.29C283.65,-470.33 288,-461 292.27,-451.85"/>
<polygon fill="#ccff99" stroke="#ccff99" points="295.44,-453.33 296.5,-442.79 289.1,-450.37 295.44,-453.33"/>
</g>
<!-- node2 -->
<g id="node3" class="node">
<title>node2</title>
<path fill="#00bfff" stroke="black" d="M12,-175.5C12,-175.5 100,-175.5 100,-175.5 106,-175.5 112,-181.5 112,-187.5 112,-187.5 112,-278.5 112,-278.5 112,-284.5 106,-290.5 100,-290.5 100,-290.5 12,-290.5 12,-290.5 6,-290.5 0,-284.5 0,-278.5 0,-278.5 0,-187.5 0,-187.5 0,-181.5 6,-175.5 12,-175.5"/>
<text text-anchor="middle" x="56" y="-275.3" font-family="Times New Roman,serif" font-size="14.00">idx: 011ECFF0</text>
<polyline fill="none" stroke="black" points="0,-267.5 112,-267.5"/>
<text text-anchor="middle" x="56" y="-252.3" font-family="Times New Roman,serif" font-size="14.00">value: judo belt</text>
<polyline fill="none" stroke="black" points="0,-244.5 112,-244.5"/>
<text text-anchor="middle" x="56" y="-229.3" font-family="Times New Roman,serif" font-size="14.00">left: 00000000</text>
<polyline fill="none" stroke="black" points="0,-221.5 112,-221.5"/>
<text text-anchor="middle" x="56" y="-206.3" font-family="Times New Roman,serif" font-size="14.00">right: 00000000</text>
<polyline fill="none" stroke="black" points="0,-198.5 112,-198.5"/>
<text text-anchor="middle" x="56" y="-183.3" font-family="Times New Roman,serif" font-size="14.00">parent: 00000000</text>
</g>
<!-- node1&#45;&gt;node2 -->
<g id="edge2" class="edge">
<title>node1&#45;&gt;node2</title>
<path fill="none" stroke="#00bfff" d="M134.99,-327.29C127.01,-317.86 118.68,-308.03 110.55,-298.43"/>
<polygon fill="#00bfff" stroke="#00bfff" points="113.21,-296.16 104.08,-290.79 107.87,-300.68 113.21,-296.16"/>
</g>
<!-- node3 -->
<g id="node4" class="node">
<title>node3</title>
<path fill="#ccff99" stroke="black" d="M142,-175.5C142,-175.5 230,-175.5 230,-175.5 236,-175.5 242,-181.5 242,-187.5 242,-187.5 242,-278.5 242,-278.5 242,-284.5 236,-290.5 230,-290.5 230,-290.5 142,-290.5 142,-290.5 136,-290.5 130,-284.5 130,-278.5 130,-278.5 130,-187.5 130,-187.5 130,-181.5 136,-175.5 142,-175.5"/>
<text text-anchor="middle" x="186" y="-275.3" font-family="Times New Roman,serif" font-size="14.00">idx: 011ED098</text>
<polyline fill="none" stroke="black" points="130,-267.5 242,-267.5"/>
<text text-anchor="middle" x="186" y="-252.3" font-family="Times New Roman,serif" font-size="14.00">value: sun</text>
<polyline fill="none" stroke="black" points="130,-244.5 242,-244.5"/>
<text text-anchor="middle" x="186" y="-229.3" font-family="Times New Roman,serif" font-size="14.00">left: 00000000</text>
<polyline fill="none" stroke="black" points="130,-221.5 242,-221.5"/>
<text text-anchor="middle" x="186" y="-206.3" font-family="Times New Roman,serif" font-size="14.00">right: 00000000</text>
<polyline fill="none" stroke="black" points="130,-198.5 242,-198.5"/>
<text text-anchor="middle" x="186" y="-183.3" font-family="Times New Roman,serif" font-size="14.00">parent: 00000000</text>
</g>
<!-- node1&#45;&gt;node3 -->
<g id="edge3" class="edge">
<title>node1&#45;&gt;node3</title>
<path fill="none" stroke="#ccff99" d="M184.13,-327.29C184.31,-318.7 184.48,-309.78 184.66,-301"/>
<polygon fill="#ccff99" stroke="#ccff99" points="188.16,-300.86 184.86,-290.79 181.16,-300.72 188.16,-300.86"/>
</g>
<!-- node5 -->
<g id="node6" class="node">
<title>node5</title>
<path fill="#00bfff" stroke="black" d="M277,-175.5C277,-175.5 365,-175.5 365,-175.5 371,-175.5 377,-181.5 377,-187.5 377,-187.5 377,-278.5 377,-278.5 377,-284.5 371,-290.5 365,-290.5 365,-290.5 277,-290.5 277,-290.5 271,-290.5 265,-284.5 265,-278.5 265,-278.5 265,-187.5 265,-187.5 265,-181.5 271,-175.5 277,-175.5"/>
<text text-anchor="middle" x="321" y="-275.3" font-family="Times New Roman,serif" font-size="14.00">idx: 011ECF90</text>
<polyline fill="none" stroke="black" points="265,-267.5 377,-267.5"/>
<text text-anchor="middle" x="321" y="-252.3" font-family="Times New Roman,serif" font-size="14.00">value: grey</text>
<polyline fill="none" stroke="black" points="265,-244.5 377,-244.5"/>
<text text-anchor="middle" x="321" y="-229.3" font-family="Times New Roman,serif" font-size="14.00">left: 011ED008</text>
<polyline fill="none" stroke="black" points="265,-221.5 377,-221.5"/>
<text text-anchor="middle" x="321" y="-206.3" font-family="Times New Roman,serif" font-size="14.00">right: 011ED0C8</text>
<polyline fill="none" stroke="black" points="265,-198.5 377,-198.5"/>
<text text-anchor="middle" x="321" y="-183.3" font-family="Times New Roman,serif" font-size="14.00">parent: 00000000</text>
</g>
<!-- node4&#45;&gt;node5 -->
<g id="edge5" class="edge">
<title>node4&#45;&gt;node5</title>
<path fill="none" stroke="#00bfff" d="M322.24,-327.29C322.13,-318.7 322.01,-309.78 321.89,-301"/>
<polygon fill="#00bfff" stroke="#00bfff" points="325.39,-300.74 321.76,-290.79 318.39,-300.83 325.39,-300.74"/>
</g>
<!-- node8 -->
<g id="node9" class="node">
<title>node8</title>
<path fill="#ccff99" stroke="black" d="M407,-175.5C407,-175.5 495,-175.5 495,-175.5 501,-175.5 507,-181.5 507,-187.5 507,-187.5 507,-278.5 507,-278.5 507,-284.5 501,-290.5 495,-290.5 495,-290.5 407,-290.5 407,-290.5 401,-290.5 395,-284.5 395,-278.5 395,-278.5 395,-187.5 395,-187.5 395,-181.5 401,-175.5 407,-175.5"/>
<text text-anchor="middle" x="451" y="-275.3" font-family="Times New Roman,serif" font-size="14.00">idx: 011ED0B0</text>
<polyline fill="none" stroke="black" points="395,-267.5 507,-267.5"/>
<text text-anchor="middle" x="451" y="-252.3" font-family="Times New Roman,serif" font-size="14.00">value: grass</text>
<polyline fill="none" stroke="black" points="395,-244.5 507,-244.5"/>
<text text-anchor="middle" x="451" y="-229.3" font-family="Times New Roman,serif" font-size="14.00">left: 00000000</text>
<polyline fill="none" stroke="black" points="395,-221.5 507,-221.5"/>
<text text-anchor="middle" x="451" y="-206.3" font-family="Times New Roman,serif" font-size="14.00">right: 00000000</text>
<polyline fill="none" stroke="black" points="395,-198.5 507,-198.5"/>
<text text-anchor="middle" x="451" y="-183.3" font-family="Times New Roman,serif" font-size="14.00">parent: 00000000</text>
</g>
<!-- node4&#45;&gt;node8 -->
<g id="edge8" class="edge">
<title>node4&#45;&gt;node8</title>
<path fill="none" stroke="#ccff99" d="M371.39,-327.29C379.44,-317.86 387.83,-308.03 396.02,-298.43"/>
<polygon fill="#ccff99" stroke="#ccff99" points="398.71,-300.67 402.54,-290.79 393.39,-296.12 398.71,-300.67"/>
</g>
<!-- node6 -->
<g id="node7" class="node">
<title>node6</title>
<path fill="#00bfff" stroke="black" d="M212,-23.5C212,-23.5 300,-23.5 300,-23.5 306,-23.5 312,-29.5 312,-35.5 312,-35.5 312,-126.5 312,-126.5 312,-132.5 306,-138.5 300,-138.5 300,-138.5 212,-138.5 212,-138.5 206,-138.5 200,-132.5 200,-126.5 200,-126.5 200,-35.5 200,-35.5 200,-29.5 206,-23.5 212,-23.5"/>
<text text-anchor="middle" x="256" y="-123.3" font-family="Times New Roman,serif" font-size="14.00">idx: 011ED008</text>
<polyline fill="none" stroke="black" points="200,-115.5 312,-115.5"/>
<text text-anchor="middle" x="256" y="-100.3" font-family="Times New Roman,serif" font-size="14.00">value: mouse</text>
<polyline fill="none" stroke="black" points="200,-92.5 312,-92.5"/>
<text text-anchor="middle" x="256" y="-77.3" font-family="Times New Roman,serif" font-size="14.00">left: 00000000</text>
<polyline fill="none" stroke="black" points="200,-69.5 312,-69.5"/>
<text text-anchor="middle" x="256" y="-54.3" font-family="Times New Roman,serif" font-size="14.00">right: 00000000</text>
<polyline fill="none" stroke="black" points="200,-46.5 312,-46.5"/>
<text text-anchor="middle" x="256" y="-31.3" font-family="Times New Roman,serif" font-size="14.00">parent: 00000000</text>
</g>
<!-- node5&#45;&gt;node6 -->
<g id="edge6" class="edge">
<title>node5&#45;&gt;node6</title>
<path fill="none" stroke="#00bfff" d="M296.43,-175.29C292.58,-166.42 288.58,-157.19 284.66,-148.14"/>
<polygon fill="#00bfff" stroke="#00bfff" points="287.8,-146.57 280.61,-138.79 281.37,-149.36 287.8,-146.57"/>
</g>
<!-- node7 -->
<g id="node8" class="node">
<title>node7</title>
<path fill="#ccff99" stroke="black" d="M342,-23.5C342,-23.5 430,-23.5 430,-23.5 436,-23.5 442,-29.5 442,-35.5 442,-35.5 442,-126.5 442,-126.5 442,-132.5 436,-138.5 430,-138.5 430,-138.5 342,-138.5 342,-138.5 336,-138.5 330,-132.5 330,-126.5 330,-126.5 330,-35.5 330,-35.5 330,-29.5 336,-23.5 342,-23.5"/>
<text text-anchor="middle" x="386" y="-123.3" font-family="Times New Roman,serif" font-size="14.00">idx: 011ED0C8</text>
<polyline fill="none" stroke="black" points="330,-115.5 442,-115.5"/>
<text text-anchor="middle" x="386" y="-100.3" font-family="Times New Roman,serif" font-size="14.00">value: frog</text>
<polyline fill="none" stroke="black" points="330,-92.5 442,-92.5"/>
<text text-anchor="middle" x="386" y="-77.3" font-family="Times New Roman,serif" font-size="14.00">left: 00000000</text>
<polyline fill="none" stroke="black" points="330,-69.5 442,-69.5"/>
<text text-anchor="middle" x="386" y="-54.3" font-family="Times New Roman,serif" font-size="14.00">right: 00000000</text>
<polyline fill="none" stroke="black" points="330,-46.5 442,-46.5"/>
<text text-anchor="middle" x="386" y="-31.3" font-family="Times New Roman,serif" font-size="14.00">parent: 00000000</text>
</g>
<!-- node5&#45;&gt;node7 -->
<g id="edge7" class="edge">
<title>node5&#45;&gt;node7</title>
<path fill="none" stroke="#ccff99" d="M345.57,-175.29C349.42,-166.42 353.42,-157.19 357.34,-148.14"/>
<polygon fill="#ccff99" stroke="#ccff99" points="360.63,-149.36 361.39,-138.79 354.2,-146.57 360.63,-149.36"/>
</g>
</g>
</svg>
